<svg xmlns="http://www.w3.org/2000/svg" width="624" height="472" fill="none" xmlns:v="https://vecta.io/nano"><style><![CDATA[.B{fill:#3f1715}.C{fill:#21120d}.D{fill:#d3573b}.E{fill:#f46640}.F{fill:#f9a42d}.G{fill:#ffcb80}.H{fill:#ffe0b3}.I{fill:#421819}.J{fill:#612423}]]></style><g clip-path="url(#A)"><path d="M388.526 217.088c48.454-48.501 48.454-127.135 0-175.635s-127.014-48.5-175.468 0-48.454 127.134 0 175.635 127.014 48.5 175.468 0z" fill="#ff9800"/><path d="M618.657 336.004l-28.51-.065-42.151-.099-85.875-.197s.016 0 .049-.016l86.252-47.902 70.251 48.279h-.016z" class="G"/><path d="M618.655 336.004l-28.51-.065c-8.427-16.099-33.068-25.19-39.937-29.686-8.575-5.596-1.787-18.544-1.787-18.544l70.251 48.279-.017.016z" class="H"/><path d="M547.996 335.857l-85.875-.197s.016 0 .049-.017c1.115-.508 22.412-9.977 38.79-6.482 14.493 3.102 39.429 1.018 47.036 6.696z" fill="#e8a577"/><path d="M320.753 336.004l-58.364-.131-86.285-.197L.32 335.282s.033 0 .098-.049l176.554-98.067 143.797 98.822-.017.016z" class="G"/><path d="M320.756 336.004l-58.365-.131c-17.247-32.952-67.709-51.577-81.76-60.751-17.542-11.47-3.672-37.94-3.672-37.94l143.797 98.822z" class="H"/><path d="M176.104 335.693L.32 335.299s.033 0 .098-.049c2.295-1.034 45.889-20.431 79.416-13.26 29.675 6.351 80.695 2.084 96.286 13.703h-.016z" fill="#ffb74d"/><g class="H"><path d="M541.294 336.004l-40.609-.082-60.037-.131-122.304-.279s.033 0 .065-.033l122.845-68.233 100.04 68.758z"/><path d="M541.294 336.004l-40.609-.082c-12.001-22.925-47.102-35.889-56.89-42.272-12.197-7.976-2.557-26.404-2.557-26.404l100.04 68.758h.016z"/></g><path d="M440.648 335.791l-122.304-.279s.033 0 .065-.033c1.591-.722 31.937-14.211 55.25-9.222 20.641 4.414 56.152 1.444 66.989 9.534z" class="G"/><path d="M526.903 235.131c-8.444.213-15.067 7.384-15.067 15.836v85.284h30.969v-85.629c0-8.697-7.148-15.721-15.886-15.491h-.016z" class="D"/><g class="E"><path d="M527.311 235.114c-4.853 0-8.788 6.942-8.788 15.492v85.628h17.575v-85.628c0-8.567-3.934-15.492-8.787-15.492z"/><path d="M527.311 235.114c-1.82 0-3.295 6.942-3.295 15.492v85.628h6.59v-85.628c0-8.567-1.475-15.492-3.295-15.492z"/></g><g class="F"><path d="M520.982 246.684l-2.016 1.772-.41-3.807-.41 3.807-2.033-1.772 1.902 2.986.541.854v-.017.017l.541-.854 1.885-2.986zm17.528 0l-2.017 1.772-.41-3.807-.409 3.807-2.033-1.772 1.901 2.986.525.854v-.017l.016.017.541-.854 1.886-2.986zm-8.758 5.858l-2.033 1.789-.41-3.807-.41 3.807-2.016-1.789 1.885 3.003.541.837.541-.837v-.016l1.902-2.987z"/><use href="#B"/><path d="M520.982 260.238l-2.016 1.789-.41-3.823-.41 3.823-2.033-1.789 1.902 2.987.541.853.541-.853 1.885-2.987zm17.528 0l-2.017 1.789-.41-3.823-.409 3.823-2.033-1.789 1.901 2.987.525.853h.016l.541-.853 1.886-2.987zm-17.528 13.572l-2.016 1.772-.41-3.807-.41 3.807-2.033-1.772 1.902 2.986.541.837.541-.837v-.016l1.885-2.97zm17.528 0l-2.017 1.772-.41-3.807-.409 3.807-2.033-1.772 1.901 2.986.525.837h.016l.541-.837v-.016l1.886-2.97z"/></g><path d="M498.916 258.4v-5.481c0-3.511-2.623-6.646-6.115-6.826a6.48 6.48 0 0 0-6.821 6.465v12.718c0 5.924 4.788 10.716 10.706 10.716h16.477v-12.947h-9.591a4.65 4.65 0 0 1-4.64-4.645h-.016z" class="D"/><path d="M496.685 271.496c-3.426 0-6.197-2.774-6.197-6.203v-12.718c0-1.083.886-1.969 1.968-1.969 1.114.049 1.967 1.115 1.967 2.33v9.862a4.76 4.76 0 0 0 4.754 4.759h12.673v3.922h-15.148l-.017.017z" class="E"/><g class="F"><path d="M499.193 269.592l-2.016 1.772-.41-3.807-.41 3.807-2.033-1.772 1.902 2.987.525.837h.016l.541-.837v-.017l1.885-2.97zm-6.277-9.354l-2.016 1.789-.41-3.824-.41 3.824-2.033-1.789 1.902 2.987.524.853h.017l.541-.853 1.885-2.987zm3.852-8.32l-2.033 1.789-.41-3.807-.41 3.807-2.017-1.789 1.886 3.003.541.837.541-.837v-.016l1.902-2.987zm11.836 17.674l-2.017 1.772-.41-3.807-.41 3.807-2.033-1.772 1.902 2.987.541.837.541-.837v-.017l1.886-2.97z"/></g><path d="M557.032 285.28v-5.481c0-3.511 2.623-6.646 6.115-6.826a6.48 6.48 0 0 1 6.82 6.465v12.718c0 5.924-4.787 10.716-10.705 10.716h-16.477v-12.948h9.591a4.65 4.65 0 0 0 4.64-4.644h.016z" class="D"/><path d="M559.262 298.359c3.426 0 6.197-2.773 6.197-6.203v-12.718c0-1.083-.885-1.969-1.967-1.969-1.115.049-1.968 1.116-1.968 2.33v9.863a4.76 4.76 0 0 1-4.754 4.759h-13.985v3.922h16.477v.016z" class="E"/><g class="F"><path d="M556.754 296.456l2.016 1.789.41-3.808.41 3.808 2.033-1.789-1.902 2.986-.524.854h-.017l-.541-.854-1.885-2.986zm6.281-9.338l2.017 1.773.41-3.808.409 3.808 2.033-1.773-1.901 2.987-.525.853v-.016l-.016.016-.541-.853-1.886-2.987zm-3.855-8.32l2.033 1.773.41-3.808.409 3.824 2.017-1.789-1.885 2.987-.541.853-.542-.853-1.901-2.987zm-11.836 17.658l2.016 1.789.41-3.808.41 3.808 2.033-1.789-1.902 2.986-.541.854-.541-.854-1.885-2.986zm-26.362-7.204l-2.016 1.788-.41-3.807-.41 3.807-2.033-1.788 1.902 2.986v.017l.541.837.541-.854 1.885-2.986zm17.528 0l-2.017 1.788-.41-3.807-.409 3.807-2.033-1.788 1.901 2.986v.017l.525.837h.016l.541-.854 1.886-2.986zm-8.758 5.874l-2.033 1.773-.41-3.807-.41 3.807-2.016-1.773 1.885 2.987.541.853v-.016.016l.541-.853 1.902-2.987zm0 14.606l-2.033 1.788-.41-3.807-.41 3.807-2.016-1.788 1.885 2.986v.017l.541.837.541-.854 1.902-2.986zm0 14.621l-2.033 1.772-.41-3.807-.41 3.807-2.016-1.772 1.885 2.987.541.853v-.016.016l.541-.853 1.902-2.987zm-8.77-21.53l-2.016 1.772-.41-3.807-.41 3.807-2.033-1.772 1.902 2.987.541.853v-.017.017l.541-.853 1.885-2.987zm17.528 0l-2.017 1.772-.41-3.807-.409 3.807-2.033-1.772 1.901 2.987.525.853v-.016l.016.016.541-.853 1.886-2.987zm-17.528 13.555l-2.016 1.772-.41-3.807-.41 3.823-2.033-1.788 1.902 2.986.541.854.541-.854 1.885-2.986zm17.528 0l-2.017 1.772-.41-3.807-.409 3.823-2.033-1.788 1.901 2.986.525.854h.016l.541-.854 1.886-2.986z"/></g><path d="M528.688 229.863s.296-4.89-1.377-8.107c-1.672 3.217-1.377 8.107-1.377 8.107h2.738.016z" class="B"/><path d="M529.179 228.288c-.409.672-.852 1.017-1.278 1.017h-1.164c-.443 0-.869-.345-1.279-1.017l-2.099-3.447 1.296 5.892c.704 3.216 1.672 5.021 2.672 5.021s1.951-1.805 2.672-5.021l1.295-5.892-2.098 3.447h-.017z" class="C"/><path d="M530.185 229.387c-.623.574-1.295.87-1.967.87h-1.787c-.672 0-1.328-.296-1.968-.87l-3.213-2.937 1.984 5.021c1.082 2.741 2.557 4.283 4.082 4.283s3-1.542 4.082-4.283l1.984-5.021-3.213 2.937h.016z" class="B"/><path d="M531.51 230.454c-.919.476-1.902.722-2.886.722h-2.623c-.984 0-1.951-.246-2.886-.722l-4.705-2.445 2.918 4.168c1.591 2.281 3.738 3.561 5.984 3.561s4.394-1.28 5.985-3.561l2.918-4.168-4.705 2.445z" class="C"/><path d="M492.768 243.648s.196-3.118-.869-5.153c-1.066 2.051-.869 5.153-.869 5.153h1.738z" class="B"/><path d="M493.08 242.647c-.262.426-.541.656-.82.656h-.737c-.279 0-.558-.213-.82-.656l-1.328-2.199.82 3.741c.442 2.051 1.065 3.2 1.688 3.2s1.246-1.149 1.689-3.2l.82-3.741-1.328 2.199h.016z" class="C"/><path d="M493.704 243.352c-.394.361-.82.558-1.246.558h-1.131c-.427 0-.853-.18-1.246-.558l-2.05-1.871 1.263 3.184c.688 1.739 1.623 2.724 2.59 2.724s1.902-.985 2.59-2.724l1.263-3.184-2.05 1.871h.017z" class="B"/><path d="M494.556 244.041a3.9 3.9 0 0 1-1.836.46h-1.673a3.9 3.9 0 0 1-1.836-.46l-3-1.559 1.853 2.659c1.016 1.444 2.377 2.265 3.803 2.265s2.804-.821 3.804-2.265l1.852-2.659-3 1.559h.033z" class="C"/><path d="M564.576 269.182s.246-4.021-1.131-6.679c-1.377 2.642-1.131 6.679-1.131 6.679h2.262z" class="B"/><path d="M564.99 267.886c-.344.557-.688.836-1.049.836h-.967c-.361 0-.722-.279-1.049-.836l-1.722-2.839 1.066 4.857c.59 2.642 1.377 4.135 2.197 4.135s1.606-1.493 2.197-4.135l1.065-4.857-1.721 2.839h-.017z" class="C"/><path d="M565.806 268.788c-.524.476-1.065.722-1.623.722h-1.475c-.557 0-1.099-.246-1.623-.722l-2.64-2.412 1.64 4.135c.885 2.248 2.098 3.528 3.361 3.528s2.475-1.263 3.361-3.528l1.639-4.135-2.64 2.412z" class="B"/><path d="M566.905 269.674c-.754.394-1.558.591-2.377.591h-2.148c-.803 0-1.607-.197-2.377-.591l-3.886-2.018 2.394 3.446c1.311 1.871 3.082 2.937 4.935 2.937s3.623-1.05 4.934-2.937l2.394-3.446-3.886 2.018h.017z" class="C"/><path d="M354.772 180.452l-48.036-13.719-5.935 31.885 17.05 9.616 5.23 25.748.148 41.009 6 32.755-22.083-3.774-.755 7.926-3.721 30.506 4.476 5.645 45.068-21.612 16.477-53.907 3.344-35.857-17.279-56.238.016.017z" class="I"/><path d="M279.259 233.982l5.181 41.009 4.426 30.376 15.1 7.171 5.574 31.425-41.528-23.138-20.87-48.279-.197-35.856 15.116-53.596 40.495-13.637 3.754 27.733-9.771 11.258-17.28 25.534z" class="J"/><path d="M207.01 276.14l24.969-2.494 5.968 33.493-25.281-4.365 4.968 39.942-39.282-5.94-3.065-32.427-65.185-2.15.705-21.218 23.542-35.184 18.1-39.614L174.5 169.03l1.016 1.051 40.593-1.559 5.247 53.349-14.346 54.285v-.016zm-72.972-2.002l41.773-.476-6.787-52.825 3.721-2.018 2.05 8.829-40.757 46.506v-.016z" class="I"/><path d="M234.091 270.823l-4.706 27.257-58.496 5.399-63.119 5.022-1.59-29.063 21.559-37.858 19.706-38.728 29.166-35.233-3.607 52.316-32.723 54.072 47.298 5.858 46.512-9.042z" class="J"/><path d="M481.866 276.14l24.969-2.494 5.967 33.493-25.28-4.365 4.967 39.942-39.281-5.94-3.066-32.427-65.185-2.15.705-21.218 23.526-35.184 18.1-39.614 22.051-37.153 1.016 1.051 40.593-1.559 5.247 53.349-14.346 54.285.017-.016zm-72.989-2.002l41.773-.476-6.787-52.825 3.722-2.018 2.049 8.829-40.757 46.506v-.016z" class="I"/><path d="M508.93 270.823l-4.706 27.257-58.496 5.399-63.119 5.022-1.574-29.063 21.559-37.858 19.706-38.728 29.15-35.233-3.59 52.316-32.724 54.072 47.282 5.858 46.512-9.042z" class="J"/><path d="M87.691 171.114c-10.493.263-18.723 9.174-18.723 19.676v164.398h38.445V190.364c0-10.798-8.886-19.512-19.723-19.233v-.017z" class="D"/><g class="E"><path d="M88.196 171.114c-6.033 0-10.919 8.616-10.919 19.233v164.825h21.821V190.347c0-10.634-4.886-19.233-10.919-19.233h.016z"/><path d="M88.2 171.114c-2.262 0-4.099 8.616-4.099 19.233v164.825h8.181V190.347c0-10.634-1.836-19.233-4.099-19.233h.016z"/></g><g class="F"><use href="#C"/><use href="#D"/><use href="#E"/><path d="M91.213 210.893l-2.508 2.199-.508-4.726-.508 4.742-2.508-2.215 2.344 3.709.672 1.05.672-1.05 2.344-3.709zm0 18.15l-2.508 2.199-.508-4.727-.508 4.727-2.508-2.199 2.344 3.708.672 1.051v-.017.017l.672-1.051v-.016l2.344-3.692zm-10.87-26.733l-2.508 2.199-.508-4.726h-.016l-.508 4.726-2.508-2.199 2.361 3.709.656 1.05v-.016l.016.016.672-1.05v-.016l2.344-3.693zm21.754 0l-2.509 2.199-.508-4.726h-.016l-.508 4.726-2.508-2.199 2.344 3.709.672 1.05v-.016.016l.689-1.05-.016-.016 2.361-3.693zm-21.754 16.837l-2.508 2.199-.508-4.726h-.016l-.508 4.726-2.508-2.199 2.361 3.709.656 1.05v-.016l.016.016.672-1.05v-.016l2.344-3.693zm21.754 0l-2.509 2.199-.508-4.726h-.016l-.508 4.726-2.508-2.199 2.344 3.709.672 1.05v-.016.016l.689-1.05-.016-.017 2.361-3.692z"/></g><path d="M52.933 200.029v-6.794c0-4.348-3.263-8.254-7.591-8.484-4.623-.246-8.46 3.446-8.46 8.025v15.787c0 7.351 5.951 13.308 13.296 13.308h20.444v-16.065H58.704c-3.181 0-5.771-2.577-5.771-5.777z" class="D"/><path d="M50.162 216.275c-4.246 0-7.689-3.446-7.689-7.696v-15.787c0-1.345 1.098-2.428 2.443-2.428 1.377.065 2.426 1.394 2.426 2.888v12.258c0 3.266 2.639 5.908 5.902 5.908h15.722v4.874H50.162v-.017z" class="E"/><g class="F"><path d="M53.296 213.896l-2.508 2.215-.508-4.726h-.016l-.508 4.726-2.508-2.215 2.344 3.709v.016l.672 1.05v-.016.016l.672-1.066 2.361-3.709zm-7.809-11.586l-2.508 2.199-.508-4.726-.508 4.726-2.525-2.199 2.361 3.709.672 1.05v-.016.016l.672-1.05v-.016l2.344-3.693zm4.774-10.338l-2.508 2.215-.508-4.726-.508 4.726-2.525-2.215 2.361 3.709v.016l.672 1.05v-.016.016l.672-1.066 2.344-3.709zm14.706 21.924l-2.508 2.215-.508-4.726-.508 4.726-2.508-2.215 2.344 3.709v.016l.672 1.05v-.016.016l.672-1.066 2.344-3.709z"/></g><path d="M125.104 289.875v-6.794c0-4.348 3.262-8.254 7.591-8.484 4.623-.246 8.459 3.447 8.459 8.025v15.787c0 7.351-5.951 13.308-13.296 13.308h-20.444v-16.065h11.919c3.181 0 5.771-2.577 5.771-5.777z" class="D"/><path d="M127.875 306.121c4.246 0 7.689-3.446 7.689-7.696v-15.787c0-1.345-1.099-2.428-2.443-2.428-1.377.065-2.427 1.395-2.427 2.888v12.258c0 3.266-2.639 5.908-5.902 5.908h-17.378v4.874h20.444l.017-.017z" class="E"/><g class="F"><path d="M124.742 303.758l2.509 2.199.508-4.726h.016l.508 4.726 2.509-2.199-2.345 3.709-.672 1.05v-.016.016l-.688-1.05.016-.016-2.361-3.693zm7.809-11.602l2.508 2.199.508-4.726.509 4.743 2.524-2.216-2.36 3.709-.673 1.05-.672-1.05-2.344-3.709zm-4.774-10.322l2.509 2.199.508-4.726.508 4.726 2.509-2.199-2.345 3.709-.672 1.05-.672-1.05v-.016l-2.345-3.693zm-14.722 21.924l2.508 2.199.525-4.726.508 4.726 2.508-2.199-2.344 3.709-.672 1.05v-.016.016l-.672-1.05v-.016l-2.361-3.693zm-32.712-65.427l-2.508 2.199-.508-4.726h-.016l-.508 4.726-2.508-2.199 2.361 3.708.656 1.051v-.017l.016.017.672-1.051v-.016l2.344-3.692zm21.754 0l-2.509 2.199-.508-4.726h-.016l-.508 4.726-2.508-2.199 2.344 3.708.672 1.051v-.017.017l.689-1.051-.016-.016 2.361-3.692z"/><use href="#F"/><path d="M91.213 263.75l-2.508 2.199-.508-4.726-.508 4.743-2.508-2.216 2.344 3.709.672 1.05.672-1.05 2.344-3.709zm0 18.15l-2.508 2.199-.508-4.726-.508 4.726-2.508-2.199 2.344 3.709.672 1.05v-.017.017l.672-1.05v-.017l2.344-3.692zm-10.87-26.732l-2.508 2.199-.508-4.727h-.016l-.508 4.727-2.508-2.199 2.361 3.708.656 1.051v-.017l.016.017.672-1.051v-.016l2.344-3.692zm21.754 0l-2.509 2.199-.508-4.727h-.016l-.508 4.727-2.508-2.199 2.344 3.708.672 1.051v-.017.017l.689-1.051-.016-.016 2.361-3.692zm-21.754 16.837l-2.508 2.198-.508-4.726h-.016l-.508 4.726-2.508-2.198 2.361 3.708.656 1.051v-.017l.016.017.672-1.051v-.016l2.344-3.692zm21.754-.001l-2.509 2.199-.508-4.726h-.016l-.508 4.726-2.508-2.199 2.344 3.709.672 1.05v-.016.016l.689-1.05-.016-.016 2.361-3.693z"/><use href="#G"/><use href="#H"/><path d="M91.213 299.508l-2.508 2.199-.508-4.726-.508 4.726-2.508-2.199 2.344 3.709.672 1.05.672-1.05 2.344-3.709zm0 18.133l-2.508 2.216-.508-4.726-.508 4.726-2.508-2.216 2.344 3.709v.016l.672 1.051v-.017.017l.672-1.067 2.344-3.709zm0 18.15l-2.508 2.199-.508-4.726-.508 4.726-2.508-2.199 2.344 3.709.672 1.05.672-1.05v-.017l2.344-3.692zm-10.87-26.732l-2.508 2.199-.508-4.726h-.016l-.508 4.742-2.508-2.215 2.361 3.709.656 1.05h.016l.672-1.05 2.344-3.709zm21.754 0l-2.509 2.199-.508-4.726h-.016l-.508 4.742-2.508-2.215 2.344 3.709.672 1.05.689-1.05h-.016l2.361-3.709zm-21.754 16.837l-2.508 2.199-.508-4.726h-.016l-.508 4.726-2.508-2.199 2.361 3.708.656 1.051h.016l.672-1.051 2.344-3.708zm21.754 0l-2.509 2.199-.508-4.726h-.016l-.508 4.726-2.508-2.199 2.344 3.708.672 1.051.689-1.051h-.016l2.361-3.708z"/></g><path d="M89.909 164.583s.377-6.072-1.705-10.059c-2.082 3.987-1.705 10.059-1.705 10.059h3.41z" class="B"/><path d="M90.515 162.63c-.508.837-1.049 1.264-1.59 1.264h-1.443c-.541 0-1.082-.427-1.59-1.264l-2.607-4.283 1.607 7.319c.885 3.988 2.066 6.236 3.312 6.236s2.426-2.248 3.312-6.236l1.607-7.319-2.607 4.283z" class="C"/><path d="M91.743 164.009c-.787.722-1.607 1.083-2.443 1.083h-2.213c-.836 0-1.656-.361-2.443-1.083l-3.984-3.643 2.459 6.236c1.344 3.397 3.164 5.3 5.066 5.3s3.722-1.903 5.066-5.3l2.459-6.236-3.984 3.643h.016z" class="B"/><path d="M93.399 165.322c-1.148.59-2.361.902-3.574.902h-3.246c-1.213 0-2.426-.312-3.574-.902l-5.853-3.036 3.607 5.185c1.967 2.823 4.64 4.415 7.427 4.415s5.459-1.592 7.427-4.415l3.607-5.185-5.853 3.036h.033z" class="C"/><path d="M45.311 181.699s.246-3.856-1.082-6.4c-1.328 2.544-1.082 6.4-1.082 6.4h2.164z" class="B"/><path d="M45.689 180.468c-.328.542-.672.804-1.016.804h-.918c-.344 0-.689-.279-1.016-.804l-1.656-2.724 1.017 4.661c.557 2.543 1.312 3.971 2.099 3.971s1.541-1.428 2.098-3.971l1.017-4.661-1.656 2.724h.033z" class="C"/><path d="M46.476 181.338c-.492.46-1.016.689-1.557.689h-1.41c-.525 0-1.049-.229-1.557-.689l-2.541-2.314 1.574 3.955c.853 2.166 2.017 3.381 3.23 3.381s2.377-1.215 3.23-3.381l1.574-3.955-2.541 2.314z" class="B"/><path d="M47.525 182.175c-.721.377-1.492.574-2.279.574H43.18c-.771 0-1.541-.197-2.279-.574l-3.722-1.937 2.295 3.299c1.246 1.805 2.951 2.806 4.722 2.806s3.476-1.017 4.722-2.806l2.295-3.299-3.722 1.937h.033z" class="C"/><path d="M134.464 269.888s.312-5.005-1.41-8.288c-1.705 3.283-1.409 8.288-1.409 8.288h2.803.016z" class="B"/><path d="M134.975 268.279c-.426.69-.868 1.051-1.311 1.051h-1.197c-.443 0-.885-.361-1.311-1.051l-2.148-3.528 1.328 6.023c.721 3.282 1.705 5.136 2.721 5.136s2-1.854 2.722-5.136l1.328-6.023-2.148 3.528h.016z" class="C"/><path d="M135.991 269.412c-.639.59-1.328.886-2.016.886h-1.82c-.689 0-1.361-.296-2.017-.886l-3.279-3.003 2.033 5.136c1.115 2.806 2.607 4.365 4.181 4.365s3.066-1.575 4.181-4.365l2.032-5.136-3.278 3.003h-.017z" class="B"/><path d="M137.351 270.495a6.34 6.34 0 0 1-2.951.738h-2.672c-1 0-2-.246-2.951-.738l-4.82-2.495 2.984 4.267c1.623 2.33 3.82 3.643 6.115 3.643s4.492-1.313 6.115-3.643l2.984-4.267-4.82 2.495h.016z" class="C"/><path d="M597.58 333.264c-1.115 0-19.936 28.833-21.854 31.573-9.64 13.818-28.854 15.984-43.61 24.107-11.246 6.186-20.05 16.098-27.034 26.88-9.214 14.227-16.739 31.327-32.167 38.334-12.378 5.629-27.018 3.118-39.544-2.166-20.87-8.812-36.1-19.151-59.086-22.121-22.001-2.839-44.806.181-65.185 9.009s-41.413 23.5-62.693 17.165c-26.936-8.041-37.904-46.014-65.677-50.313-20.001-3.102-38.068 13.341-58.25 14.818-19.641 1.444-37.593-11.602-50.118-26.798-12.525-15.212-21.657-33.132-35.232-47.426-4.918-5.169-10.165-9.403-15.739-13.079h576.173l.016.017z" fill="#ff9800"/><path d="M597.58 333.264c-1.115 0-19.952 28.816-21.87 31.59-9.624 13.817-28.855 15.983-43.61 24.106-11.23 6.187-20.051 16.099-27.018 26.88-9.214 14.228-16.739 31.327-32.167 38.334-12.378 5.613-27.018 3.118-39.544-2.166-20.886-8.796-36.101-19.15-59.086-22.104-21.985-2.839-44.806.18-65.185 9.009-20.378 8.812-41.413 23.516-62.677 17.165-26.936-8.041-37.92-46.014-65.676-50.314-20.002-3.101-38.052 13.342-58.251 14.819-19.64 1.444-37.592-11.586-50.134-26.798-12.525-15.196-21.657-33.116-35.232-47.409-4.918-5.17-10.165-9.403-15.739-13.079h41.347c3.066 4.414 6.214 8.746 9.624 12.882 12.542 15.196 30.477 28.242 50.134 26.798 20.199-1.477 38.249-17.92 58.251-14.835 27.772 4.299 38.74 42.273 65.676 50.314 21.264 6.35 42.299-8.337 62.677-17.166 20.379-8.812 43.184-11.831 65.185-9.009 22.985 2.97 38.2 13.309 59.086 22.121 12.526 5.284 27.166 7.779 39.544 2.15 15.428-7.007 22.953-24.107 32.167-38.334 6.967-10.782 15.788-20.677 27.018-26.88 5.935-3.266 12.575-5.563 19.051-8.058h46.429v-.016z" fill="#ffb74d"/><g fill="#fafbed"><path d="M318.118 72.801h117.976c-.443-11.389-9.804-20.48-21.297-20.48-4.721-10.667-15.378-18.117-27.772-18.117-14.903 0-27.297 10.749-29.871 24.927a13.54 13.54 0 0 0-1.64-.098c-4.803 0-9.066 2.33-11.738 5.908a11.71 11.71 0 0 0-2.853-.345c-3.476 0-6.591 1.493-8.755 3.889a10.43 10.43 0 0 0-4.836-1.182c-3.984 0-7.46 2.232-9.23 5.498h.016z"/><path d="M461.732 74.458H303.425c-.59 0-1.066-.476-1.066-1.067s.476-1.067 1.066-1.067h158.307c.59 0 1.065.476 1.065 1.067s-.475 1.067-1.065 1.067zm-116.747 5.973h-58.037c-.59 0-1.065-.476-1.065-1.067s.475-1.067 1.065-1.067h58.037c.591 0 1.066.476 1.066 1.067s-.475 1.067-1.066 1.067zm67.909 0h-31.871c-.591 0-1.066-.476-1.066-1.067s.475-1.067 1.066-1.067h31.871c.59 0 1.065.476 1.065 1.067s-.475 1.067-1.065 1.067zm-151.767 52.907h-99.4c.377-9.6 8.262-17.264 17.952-17.264 3.967-8.992 12.951-15.261 23.395-15.261 12.558 0 22.985 9.058 25.166 21.005.459-.049.918-.082 1.377-.082 4.049 0 7.64 1.969 9.886 4.989.77-.197 1.574-.296 2.393-.296 2.935 0 5.558 1.264 7.378 3.266 1.213-.64 2.607-1.001 4.082-1.001 3.361 0 6.279 1.871 7.771 4.628v.016z"/><path d="M140.131 134.733h133.371a.886.886 0 1 0 0-1.772H140.131a.886.886 0 1 0 0 1.772zm98.348 5.021h48.905a.88.88 0 0 0 .886-.886c0-.492-.394-.886-.886-.886h-48.905a.886.886 0 1 0 0 1.772zm-57.215 0h26.855a.886.886 0 1 0 0-1.772h-26.855a.886.886 0 1 0 0 1.772z"/></g></g><defs><clipPath id="A"><path fill="#fff" d="M0 0h624v472H0z"/></clipPath><path id="B" d="M529.752 267.163l-2.033 1.773-.41-3.807-.41 3.807-2.016-1.773 1.885 2.987.541.853v-.016.016l.541-.853 1.902-2.987z"/><path id="C" d="M80.343 185.473l-2.508 2.199-.508-4.726h-.016l-.508 4.726-2.508-2.199 2.361 3.709.656 1.05v-.016l.016.016.672-1.05v-.016l2.344-3.693z"/><path id="D" d="M102.097 185.473l-2.509 2.199-.508-4.726h-.016l-.508 4.726-2.508-2.199 2.344 3.709.672 1.05v-.016.016l.689-1.05-.016-.016 2.361-3.693z"/><path id="E" d="M91.213 192.76l-2.508 2.199-.508-4.727-.508 4.727-2.508-2.199 2.344 3.708.672 1.051v-.017.017l.672-1.051v-.016l2.344-3.692z"/><path id="F" d="M91.213 245.617l-2.508 2.199-.508-4.726-.508 4.726-2.508-2.199 2.344 3.709.672 1.05v-.017.017l.672-1.05v-.017l2.344-3.692z"/><path id="G" d="M80.343 292.222l-2.508 2.199-.508-4.726h-.016l-.508 4.742-2.508-2.215 2.361 3.709.656 1.05h.016l.672-1.05 2.344-3.709z"/><path id="H" d="M102.097 292.222l-2.509 2.199-.508-4.726h-.016l-.508 4.742-2.508-2.215 2.344 3.709.672 1.05.689-1.05h-.016l2.361-3.709z"/></defs></svg>