<svg xmlns="http://www.w3.org/2000/svg" width="210" height="210" fill="none" xmlns:v="https://vecta.io/nano"><style><![CDATA[.B{fill-opacity:.64}]]></style><g fill="#fff" class="B"><path d="M102.704 108.83a1.96 1.96 0 0 1 1.957-1.96 1.96 1.96 0 0 1 1.961 1.956 1.96 1.96 0 0 1-1.957 1.962h-.002a1.96 1.96 0 0 1-1.959-1.958zm-4.136-4.12a1.96 1.96 0 0 1 1.955-1.963c1.083-.001 1.962.874 1.965 1.955a1.96 1.96 0 1 1-3.92.008zm8.262.007v-.028a1.96 1.96 0 0 1 1.951-1.967 1.96 1.96 0 0 1 1.967 1.951v.025a1.96 1.96 0 0 1-1.959 1.959 1.96 1.96 0 0 1-1.959-1.94zm-4.143-4.143a1.96 1.96 0 0 1 1.953-1.966 1.96 1.96 0 0 1 1.964 1.953 1.96 1.96 0 0 1-1.952 1.966 1.96 1.96 0 0 1-1.965-1.953zm-1.935 16.174a1.85 1.85 0 1 1 .571.09c-.19 0-.382-.028-.571-.09zm5.494-1.191a1.85 1.85 0 1 1 2.331 1.187c-.189.062-.382.092-.572.092-.779 0-1.505-.498-1.759-1.279zm-11.827-3.404a1.85 1.85 0 1 1 2.584.405c-.329.239-.71.355-1.088.355a1.85 1.85 0 0 1-1.497-.76zm17.902.397a1.851 1.851 0 1 1 2.178-2.994c.825.602 1.008 1.76.407 2.585-.362.499-.926.763-1.498.763-.377 0-.757-.115-1.087-.354zm-20.327-7.839a1.85 1.85 0 1 1 1.852 1.849 1.85 1.85 0 0 1-1.852-1.849zm21.63-.013c-.003-1.04.824-1.871 1.845-1.874a1.85 1.85 0 0 1 1.854 1.847v.028a1.85 1.85 0 0 1-1.85 1.85 1.85 1.85 0 0 1-1.849-1.851zm-18.81-4.849a1.85 1.85 0 1 1 1.085.353c-.377 0-.757-.115-1.085-.354zm17.088-.434a1.85 1.85 0 1 1 2.586.403c-.329.24-.711.356-1.09.356-.571 0-1.134-.262-1.496-.759zM99.543 94.99a1.85 1.85 0 1 1 2.332 1.185 1.87 1.87 0 0 1-.574.092 1.85 1.85 0 0 1-1.758-1.276zm7.872 1.175a1.85 1.85 0 1 1 .57.09 1.85 1.85 0 0 1-.57-.09zm-2.869 26.117c-.087-.957.618-1.806 1.575-1.894s1.805.616 1.894 1.575a1.74 1.74 0 0 1-1.575 1.893l-.162.007a1.74 1.74 0 0 1-1.732-1.581zm-5.142.93a1.74 1.74 0 0 1-1.2-2.151 1.742 1.742 0 1 1 3.352.949c-.219.767-.916 1.267-1.675 1.267a1.79 1.79 0 0 1-.477-.065zm11.503-2.072a1.74 1.74 0 1 1 3.114-1.555c.43.861.081 1.907-.779 2.337-.25.124-.515.184-.777.184a1.74 1.74 0 0 1-1.558-.966zm-17.833-1.079a1.741 1.741 0 1 1 2.099-2.779 1.74 1.74 0 0 1 .34 2.438c-.342.454-.863.692-1.391.692a1.73 1.73 0 0 1-1.047-.351zm23.344-2.29a1.741 1.741 0 1 1 2.46-.114c-.343.378-.815.569-1.287.569a1.74 1.74 0 0 1-1.173-.455zm-28.111-2.928c-.507-.818-.257-1.891.56-2.399a1.742 1.742 0 1 1 1.839 2.958 1.74 1.74 0 0 1-2.399-.559zm32.043-2.199c-.896-.349-1.341-1.357-.994-2.253a1.741 1.741 0 1 1 3.247 1.258 1.74 1.74 0 0 1-1.623 1.112c-.211 0-.424-.038-.63-.117zm-34.604-4.393a1.741 1.741 0 1 1 3.423-.639 1.74 1.74 0 0 1-1.391 2.031 1.77 1.77 0 0 1-.323.03c-.821 0-1.552-.585-1.709-1.422zm34.669-3.553v-.033a1.741 1.741 0 1 1 3.482-.008v.023c.001.98-.778 1.759-1.741 1.759a1.74 1.74 0 0 1-1.741-1.741zm-33.281-1.483c-.946-.175-1.57-1.083-1.396-2.03a1.74 1.74 0 0 1 2.029-1.396c.946.174 1.57 1.083 1.396 2.03v-.002a1.74 1.74 0 0 1-1.711 1.426 1.83 1.83 0 0 1-.319-.028zm32.21-4.24a1.74 1.74 0 0 1 3.245-1.265 1.74 1.74 0 0 1-.989 2.256c-.209.081-.422.118-.634.118a1.74 1.74 0 0 1-1.622-1.109zm-30.494-1.99c-.818-.507-1.07-1.58-.564-2.398a1.741 1.741 0 1 1 2.962 1.832 1.74 1.74 0 0 1-2.398.566zm27.433-2.924a1.741 1.741 0 1 1 2.569-2.351 1.74 1.74 0 0 1-.108 2.459 1.73 1.73 0 0 1-1.176.457c-.471 0-.941-.189-1.285-.565zm-23.576-2.262a1.74 1.74 0 0 1 .334-2.439 1.742 1.742 0 1 1 2.105 2.775 1.73 1.73 0 0 1-1.051.354c-.526 0-1.046-.237-1.388-.689zm18.95-1.222a1.742 1.742 0 1 1 1.549-3.12 1.74 1.74 0 0 1-.775 3.302 1.75 1.75 0 0 1-.774-.182zm-13.489-2.228a1.742 1.742 0 1 1 3.35-.956c.263.925-.272 1.887-1.196 2.152-.161.046-.322.067-.48.067-.757 0-1.455-.498-1.674-1.263zm7.921.656a1.741 1.741 0 1 1 .311-3.469c.958.086 1.665.933 1.579 1.891a1.74 1.74 0 0 1-1.733 1.585 1.57 1.57 0 0 1-.157-.008zm-3.175 41.45c-.9-.06-1.58-.839-1.52-1.737a1.632 1.632 0 1 1 3.257.217c-.057.863-.776 1.524-1.627 1.524-.037 0-.073-.002-.11-.004zm5.078-1.746c-.183-.883.384-1.748 1.268-1.931a1.63 1.63 0 0 1 1.929 1.268c.182.882-.384 1.746-1.267 1.929-.113.024-.224.034-.333.034-.758 0-1.437-.53-1.597-1.3zm-11.963.326a1.632 1.632 0 1 1 1.09-3.077c.85.301 1.294 1.234.994 2.085-.238.668-.867 1.086-1.538 1.086-.181 0-.365-.03-.546-.094zm18.316-2.113c-.416-.799-.104-1.785.695-2.201s1.787-.104 2.202.697a1.63 1.63 0 0 1-.696 2.2c-.241.126-.498.184-.751.184a1.63 1.63 0 0 1-1.45-.88zm-24.558-1.12c-.737-.522-.913-1.54-.393-2.275a1.632 1.632 0 1 1 2.668 1.881 1.63 1.63 0 0 1-1.336.691c-.325 0-.653-.096-.939-.297zm30.188-2.32c-.615-.658-.58-1.691.079-2.308a1.63 1.63 0 0 1 2.307.079c.616.658.58 1.691-.078 2.308a1.63 1.63 0 0 1-2.308-.079zm-35.328-2.475a1.63 1.63 0 0 1 .233-2.295c.699-.571 1.726-.466 2.297.232a1.63 1.63 0 0 1-.234 2.297c-.303.247-.667.367-1.03.367a1.63 1.63 0 0 1-1.266-.601zm39.829-2.353a1.63 1.63 0 0 1-.545-2.242c.469-.771 1.473-1.015 2.244-.546a1.63 1.63 0 0 1-.851 3.027c-.289 0-.582-.077-.848-.239zm-43.49-3.645a1.632 1.632 0 1 1 2.992-1.305 1.63 1.63 0 0 1-.844 2.149c-.211.092-.434.137-.652.137-.629 0-1.229-.367-1.497-.981zm46.525-2.216a1.632 1.632 0 1 1 .879-3.144c.868.243 1.375 1.143 1.132 2.012-.201.72-.857 1.193-1.571 1.193a1.6 1.6 0 0 1-.44-.061zm-48.427-4.553c-.123-.893.503-1.716 1.396-1.839s1.716.502 1.839 1.395a1.63 1.63 0 0 1-1.395 1.84 1.71 1.71 0 0 1-.225.015c-.803 0-1.503-.593-1.615-1.411zm48.124-3.541v-.021-.03c-.001-.901.727-1.634 1.628-1.637s1.635.728 1.637 1.63v.03.028a1.63 1.63 0 0 1-1.633 1.632c-.901 0-1.632-.732-1.632-1.632zm-46.732-1.647a1.632 1.632 0 1 1 .436-3.235c.893.12 1.52.943 1.4 1.836-.111.819-.812 1.414-1.617 1.414a1.63 1.63 0 0 1-.22-.015zm45.888-4.486c-.244-.867.261-1.77 1.129-2.014a1.632 1.632 0 1 1 .886 3.142 1.63 1.63 0 0 1-.444.061c-.713 0-1.367-.47-1.571-1.19zm-44.553-1.977c-.828-.359-1.208-1.32-.849-2.148a1.63 1.63 0 0 1 2.147-.848c.827.358 1.207 1.319.849 2.147-.268.615-.868.983-1.499.983a1.62 1.62 0 0 1-.648-.135zm42.094-3.646a1.632 1.632 0 1 1 2.784-1.704 1.63 1.63 0 0 1-.539 2.245 1.62 1.62 0 0 1-.85.24 1.63 1.63 0 0 1-1.395-.781zm-39.056-2.214c-.7-.568-.806-1.596-.238-2.296s1.597-.806 2.297-.238.806 1.596.238 2.296a1.63 1.63 0 0 1-1.268.603 1.62 1.62 0 0 1-1.029-.365zm35.168-2.54c-.66-.615-.696-1.648-.082-2.308a1.63 1.63 0 1 1 2.39 2.224c-.322.346-.758.521-1.195.521a1.63 1.63 0 0 1-1.113-.437zm-30.665-2.284c-.521-.735-.347-1.754.388-2.276s1.754-.347 2.276.388a1.63 1.63 0 0 1-.388 2.275 1.62 1.62 0 0 1-.943.302 1.63 1.63 0 0 1-1.334-.688zm25.644-1.252a1.63 1.63 0 0 1 1.499-2.9c.801.414 1.115 1.399.701 2.201-.291.56-.861.883-1.452.883-.252 0-.508-.059-.748-.183zM94.984 82.47c-.303-.849.14-1.784.989-2.087s1.784.14 2.087.989-.14 1.783-.989 2.086c-.181.065-.367.097-.55.097-.67 0-1.298-.416-1.537-1.084zm14.225.14c-.883-.182-1.452-1.045-1.272-1.928s1.043-1.452 1.928-1.272a1.63 1.63 0 0 1 1.27 1.928 1.63 1.63 0 0 1-1.597 1.305 1.7 1.7 0 0 1-.329-.033zm-7.871-1.921c-.061-.9.616-1.679 1.516-1.741a1.63 1.63 0 0 1 1.741 1.516c.063.899-.616 1.678-1.516 1.741l-.114.004c-.85 0-1.567-.66-1.627-1.52zm3.487 54.912a1.52 1.52 0 0 1 1.439-1.603c.84-.046 1.558.599 1.604 1.439s-.6 1.558-1.441 1.603l-.083.003a1.52 1.52 0 0 1-1.519-1.442zm-5.386 1.069c-.83-.135-1.395-.918-1.26-1.747s.917-1.396 1.747-1.262 1.395.918 1.26 1.749c-.121.748-.768 1.279-1.502 1.279-.081 0-.163-.006-.245-.019zm12.024-1.82a1.52 1.52 0 0 1 1.061-1.875c.811-.224 1.65.25 1.875 1.061s-.25 1.65-1.061 1.875c-.137.038-.274.056-.409.056a1.52 1.52 0 0 1-1.466-1.117zm-18.777-.047c-.782-.312-1.164-1.197-.853-1.979s1.198-1.164 1.98-.852 1.164 1.196.852 1.979c-.238.596-.81.961-1.416.961-.188-.001-.379-.035-.563-.109zm25.096-2.118c-.394-.743-.112-1.666.631-2.061s1.665-.113 2.06.63.113 1.665-.63 2.061c-.227.121-.472.179-.714.179-.545 0-1.072-.294-1.347-.809zm-31.284-1.163c-.698-.473-.879-1.42-.406-2.117a1.52 1.52 0 0 1 2.116-.405c.696.471.878 1.419.406 2.115a1.52 1.52 0 0 1-2.116.407zm36.988-2.316a1.523 1.523 0 0 1 2.32-1.974c.546.641.468 1.602-.173 2.148-.286.244-.638.363-.986.363a1.52 1.52 0 0 1-1.161-.537zm-42.327-2.216c-.578-.61-.554-1.575.058-2.154s1.574-.553 2.153.057.554 1.575-.056 2.153c-.295.281-.672.419-1.049.419a1.52 1.52 0 0 1-1.106-.475zm47.153-2.403c-.67-.511-.799-1.467-.29-2.135s1.466-.8 2.136-.29.799 1.465.29 2.135c-.301.393-.754.601-1.214.601-.322 0-.646-.102-.922-.311zm-51.397-3.163c-.435-.721-.204-1.657.517-2.092s1.656-.204 2.091.516a1.52 1.52 0 0 1-1.302 2.311c-.516 0-1.02-.262-1.306-.735zm55.125-2.383c-.764-.354-1.096-1.261-.742-2.023a1.53 1.53 0 0 1 2.023-.744c.764.352 1.096 1.261.742 2.023-.259.557-.809.884-1.385.884-.214 0-.431-.045-.638-.14zm-58.075-3.971c-.269-.796.159-1.661.956-1.93s1.663.158 1.931.956-.159 1.661-.956 1.93a1.51 1.51 0 0 1-.487.081c-.636 0-1.229-.401-1.444-1.037zm60.519-2.25c-.821-.18-1.342-.993-1.162-1.814s.993-1.342 1.815-1.162 1.342.992 1.163 1.814c-.157.713-.788 1.197-1.488 1.197-.108 0-.218-.01-.328-.035zm-62.024-4.589a1.52 1.52 0 0 1 1.35-1.678c.836-.092 1.588.513 1.679 1.349s-.515 1.589-1.35 1.679a1.35 1.35 0 0 1-.167.009c-.767 0-1.427-.578-1.512-1.359zm61.54-3.533h.001v-.028l-.001-.037c-.001-.841.679-1.525 1.521-1.526s1.525.679 1.527 1.52l-.001.032a.52.52 0 0 1 .001.039c0 .841-.683 1.523-1.524 1.523s-1.524-.682-1.524-1.523zm-60.195-1.789c-.837-.089-1.443-.84-1.354-1.675s.84-1.444 1.677-1.355 1.443.84 1.354 1.677c-.084.781-.744 1.362-1.514 1.362a1.28 1.28 0 0 1-.163-.009zm59.503-4.583a1.52 1.52 0 0 1 1.158-1.817c.822-.182 1.635.337 1.817 1.158s-.337 1.635-1.159 1.817a1.5 1.5 0 0 1-.33.036c-.7 0-1.329-.484-1.486-1.195zm-58.404-2.009c-.798-.268-1.228-1.132-.96-1.929s1.131-1.228 1.929-.96 1.227 1.131.96 1.929c-.214.637-.807 1.04-1.445 1.04-.16 0-.324-.026-.484-.08zm56.366-3.996c-.355-.763-.024-1.669.738-2.024s1.67-.025 2.025.738.025 1.669-.737 2.024a1.52 1.52 0 0 1-.642.142c-.575 0-1.125-.325-1.384-.88zM77.402 90.12c-.721-.434-.955-1.37-.521-2.091s1.37-.955 2.091-.521.955 1.37.521 2.091c-.286.475-.79.739-1.307.739a1.51 1.51 0 0 1-.783-.218zm50.584-3.223c-.511-.669-.384-1.625.285-2.135s1.626-.384 2.136.285.383 1.625-.286 2.137c-.275.21-.6.312-.923.312a1.52 1.52 0 0 1-1.212-.598zm-46.81-2.291c-.611-.577-.639-1.542-.06-2.153s1.542-.639 2.153-.06.639 1.541.061 2.154h-.001a1.52 1.52 0 0 1-2.153.06zm42.438-2.308c-.643-.543-.722-1.504-.179-2.147s1.505-.722 2.148-.178.721 1.504.178 2.147a1.52 1.52 0 0 1-1.164.539c-.347 0-.697-.119-.983-.362zm-37.572-2.27c-.474-.696-.294-1.644.401-2.117s1.644-.295 2.117.401.295 1.643-.401 2.117c-.263.179-.56.265-.857.265-.487 0-.965-.234-1.26-.666zm32.315-1.285c-.743-.394-1.028-1.316-.633-2.059s1.315-1.028 2.058-.635 1.029 1.315.635 2.06c-.273.516-.802.811-1.348.811a1.52 1.52 0 0 1-.712-.176zm-26.583-2.144a1.52 1.52 0 0 1 .847-1.98c.782-.313 1.669.067 1.981.848s-.067 1.668-.848 1.981a1.52 1.52 0 0 1-.567.11c-.604 0-1.176-.363-1.415-.959zm20.688-.195c-.811-.223-1.288-1.062-1.065-1.874a1.52 1.52 0 0 1 1.873-1.064c.811.224 1.288 1.062 1.065 1.873-.186.676-.8 1.121-1.468 1.121a1.54 1.54 0 0 1-.405-.055zm-14.35-1.916c-.136-.831.427-1.614 1.258-1.75s1.614.426 1.75 1.256-.426 1.614-1.257 1.75a1.48 1.48 0 0 1-.25.021c-.732 0-1.379-.53-1.502-1.277zm8.088.906c-.84-.043-1.486-.76-1.443-1.6s.76-1.486 1.601-1.443a1.52 1.52 0 0 1 1.442 1.6c-.042.814-.715 1.446-1.519 1.446-.028 0-.054-.001-.081-.002z"/><path d="M102.937 143.625c-.781-.034-1.387-.693-1.353-1.474s.695-1.386 1.476-1.352 1.385.694 1.351 1.475c-.033.76-.659 1.353-1.411 1.353-.021 0-.042 0-.063-.002zm5.382-1.526c-.104-.775.438-1.486 1.213-1.591s1.487.439 1.592 1.213-.439 1.487-1.213 1.591c-.064.009-.128.013-.191.013-.697 0-1.305-.516-1.401-1.226zm-12.304.602c-.763-.173-1.239-.93-1.067-1.693s.93-1.239 1.693-1.067 1.239.93 1.067 1.693c-.149.657-.733 1.102-1.379 1.102a1.46 1.46 0 0 1-.313-.035zm18.922-1.849c-.241-.744.165-1.542.908-1.783s1.541.164 1.783.908-.165 1.541-.908 1.784a1.42 1.42 0 0 1-.437.069c-.597 0-1.151-.38-1.346-.978zm-25.571-.305c-.718-.307-1.051-1.137-.744-1.855s1.138-1.053 1.856-.746 1.053 1.137.746 1.857c-.23.537-.752.859-1.302.859a1.38 1.38 0 0 1-.555-.115zm31.856-2.11c-.371-.687-.115-1.546.573-1.917s1.546-.114 1.917.573.115 1.546-.573 1.917a1.41 1.41 0 0 1-.67.17c-.504 0-.991-.269-1.247-.743zm-38.007-1.2c-.652-.43-.832-1.308-.401-1.96s1.307-.831 1.96-.401.832 1.308.401 1.96c-.273.413-.724.636-1.182.636-.267 0-.538-.076-.778-.235zm43.759-2.303c-.488-.611-.389-1.5.223-1.989a1.41 1.41 0 0 1 1.987.222c.487.61.389 1.501-.222 1.989a1.41 1.41 0 0 1-.881.31c-.416 0-.827-.182-1.107-.532zm-49.22-2.05c-.566-.539-.585-1.435-.046-2.001s1.435-.585 2.001-.045.585 1.435.046 2c-.278.29-.65.438-1.024.438a1.41 1.41 0 0 1-.977-.392zm54.258-2.421c-.588-.515-.65-1.408-.135-1.997s1.408-.648 1.997-.133.647 1.408.134 1.995c-.281.32-.672.485-1.065.485a1.41 1.41 0 0 1-.931-.35zm-58.859-2.832c-.46-.632-.321-1.517.311-1.977s1.516-.322 1.976.31.321 1.516-.31 1.977a1.41 1.41 0 0 1-.832.272c-.437 0-.868-.203-1.145-.582zm63.023-2.463c-.671-.402-.889-1.27-.488-1.94s1.271-.89 1.94-.488.89 1.27.489 1.94c-.265.444-.735.689-1.216.689a1.41 1.41 0 0 1-.725-.201zm-66.615-3.526c-.341-.703-.046-1.549.657-1.89s1.55-.045 1.89.659.046 1.548-.657 1.889a1.41 1.41 0 0 1-1.89-.658zm69.768-2.428c-.731-.274-1.102-1.09-.828-1.822s1.091-1.102 1.822-.826 1.102 1.089.828 1.822a1.42 1.42 0 0 1-1.326.918 1.4 1.4 0 0 1-.496-.092zm-72.229-4.11a1.41 1.41 0 0 1 .986-1.739c.753-.209 1.532.232 1.741.986s-.234 1.532-.987 1.741a1.44 1.44 0 0 1-.377.051c-.621 0-1.19-.412-1.362-1.039zm74.261-2.31c-.769-.14-1.28-.875-1.141-1.644s.874-1.28 1.642-1.142a1.42 1.42 0 0 1 1.143 1.645c-.124.683-.719 1.163-1.391 1.163a1.46 1.46 0 0 1-.253-.022zm-75.508-4.56c-.071-.779.504-1.467 1.281-1.538s1.467.506 1.536 1.283-.504 1.467-1.281 1.536l-.129.006c-.723 0-1.341-.553-1.406-1.287zm74.942-3.535v-.039-.045c-.002-.781.63-1.416 1.412-1.417s1.416.63 1.417 1.412v.046.043c0 .78-.633 1.414-1.414 1.414s-1.415-.634-1.415-1.414zm-73.664-1.912c-.778-.07-1.354-.755-1.286-1.534s.755-1.354 1.533-1.286 1.354.755 1.286 1.533c-.065.737-.682 1.292-1.408 1.292-.042 0-.084-.003-.125-.005zm73.075-4.622c-.141-.769.369-1.506 1.138-1.647s1.506.37 1.645 1.137a1.42 1.42 0 0 1-1.393 1.67c-.67 0-1.266-.479-1.39-1.161zm-72.139-2.048c-.754-.206-1.198-.985-.991-1.738s.985-1.198 1.738-.991 1.198.985.991 1.738c-.172.629-.742 1.042-1.364 1.042-.124 0-.249-.017-.375-.051zm70.406-4.191c-.277-.731.093-1.548.823-1.825a1.42 1.42 0 0 1 1.825.824c.275.73-.093 1.548-.825 1.823a1.39 1.39 0 0 1-.5.093 1.42 1.42 0 0 1-1.323-.915zm-68.288-2.205c-.704-.338-1-1.184-.662-1.888s1.185-1 1.888-.662 1 1.185.662 1.888c-.243.507-.75.802-1.276.802-.205 0-.414-.044-.613-.14zm65.463-3.621c-.402-.669-.186-1.539.484-1.941s1.538-.187 1.942.483.185 1.538-.484 1.941a1.41 1.41 0 0 1-.728.202c-.48 0-.948-.244-1.214-.686zm-62.23-2.29c-.632-.458-.773-1.344-.313-1.976s1.344-.773 1.976-.313.773 1.344.313 1.976a1.41 1.41 0 0 1-1.145.584c-.288 0-.58-.088-.831-.27zm58.409-2.94c-.516-.588-.458-1.481.129-1.997s1.481-.457 1.997.129.457 1.482-.13 1.997c-.268.236-.601.351-.933.351a1.41 1.41 0 0 1-1.063-.481zm-54.175-2.299c-.541-.564-.522-1.46.042-2.001s1.46-.522 2.001.042.522 1.46-.042 2.001a1.41 1.41 0 0 1-.98.393c-.372 0-.743-.146-1.021-.435zm49.485-2.17c-.612-.487-.713-1.376-.227-1.988s1.376-.713 1.987-.227.713 1.376.228 1.988c-.28.351-.693.534-1.109.534-.308 0-.619-.101-.879-.307zm-44.388-2.233c-.432-.652-.255-1.529.397-1.962s1.529-.255 1.961.397.253 1.529-.397 1.96a1.41 1.41 0 0 1-.781.236c-.459 0-.908-.222-1.181-.632zm38.977-1.331c-.688-.37-.946-1.226-.577-1.916s1.226-.947 1.916-.577.947 1.228.577 1.916c-.256.475-.744.746-1.248.746a1.4 1.4 0 0 1-.668-.169zm-33.18-2.096c-.308-.717.024-1.55.742-1.858s1.55.023 1.858.742-.024 1.549-.742 1.858a1.41 1.41 0 0 1-.558.115c-.548 0-1.07-.321-1.301-.857zm27.221-.44c-.744-.24-1.153-1.038-.913-1.781s1.037-1.152 1.782-.912a1.41 1.41 0 0 1 .911 1.78c-.193.6-.748.981-1.346.981-.144 0-.29-.022-.434-.068zM94.865 68.41c-.175-.761.3-1.52 1.063-1.695s1.52.302 1.695 1.064-.302 1.52-1.064 1.694c-.106.025-.212.036-.317.036-.644 0-1.228-.444-1.377-1.1zm14.585.466c-.774-.102-1.319-.814-1.217-1.588s.814-1.319 1.588-1.217 1.32.814 1.217 1.588c-.094.712-.701 1.23-1.4 1.23-.062 0-.125-.003-.188-.013zm-7.952-1.624c-.035-.78.568-1.442 1.349-1.477s1.442.568 1.479 1.348-.568 1.443-1.349 1.478l-.066.001c-.752 0-1.377-.592-1.413-1.351zm3.578 81.698c-.027-.721.534-1.328 1.255-1.356s1.327.534 1.354 1.255a1.31 1.31 0 0 1-1.255 1.356h-.049c-.699 0-1.277-.552-1.305-1.255zm-5.608.995c-.717-.081-1.233-.728-1.151-1.444s.727-1.232 1.444-1.151 1.232.729 1.151 1.444c-.076.668-.641 1.16-1.297 1.16a1.07 1.07 0 0 1-.148-.009zm12.356-1.571c-.137-.708.326-1.392 1.034-1.529s1.394.325 1.531 1.034-.327 1.392-1.034 1.529c-.084.017-.167.025-.25.025-.614 0-1.16-.435-1.281-1.059zm-19.202.256c-.696-.189-1.106-.908-.915-1.604s.908-1.106 1.604-.915 1.106.909.916 1.604c-.158.581-.684.962-1.259.962-.114 0-.23-.016-.345-.047zm25.784-1.855c-.244-.679.109-1.427.786-1.671a1.31 1.31 0 0 1 1.672.786 1.31 1.31 0 0 1-1.229 1.749 1.31 1.31 0 0 1-1.229-.864zm-32.351-.498c-.658-.294-.952-1.067-.657-1.726s1.067-.953 1.725-.658a1.31 1.31 0 0 1 .658 1.727c-.218.484-.694.771-1.192.771a1.3 1.3 0 0 1-.534-.114zm38.605-2.093c-.345-.633-.112-1.426.521-1.772s1.428-.111 1.772.523.113 1.426-.521 1.771c-.198.108-.413.16-.624.16a1.31 1.31 0 0 1-1.148-.682zm-44.731-1.239c-.605-.392-.777-1.201-.385-1.806s1.2-.778 1.806-.387.778 1.202.385 1.807c-.249.386-.669.596-1.097.596a1.3 1.3 0 0 1-.709-.21zm50.517-2.279c-.438-.573-.328-1.392.245-1.829s1.394-.329 1.831.244a1.31 1.31 0 0 1-.245 1.831c-.237.18-.515.268-.792.268-.393-.001-.782-.177-1.039-.514zm-56.06-1.947c-.539-.479-.586-1.305-.107-1.844a1.31 1.31 0 0 1 1.844-.107c.539.48.586 1.306.107 1.844a1.3 1.3 0 0 1-1.844.107zm61.244-2.411a1.31 1.31 0 0 1-.035-1.847 1.31 1.31 0 0 1 1.847-.035c.519.499.535 1.327.035 1.845-.256.268-.598.401-.942.401a1.3 1.3 0 0 1-.905-.364zm-66.082-2.607c-.46-.555-.381-1.379.174-1.838s1.379-.382 1.839.175.383 1.379-.174 1.838c-.244.201-.538.3-.832.3-.375 0-.748-.162-1.007-.475zm70.546-2.489c-.589-.416-.73-1.23-.315-1.82a1.31 1.31 0 1 1 1.066 2.058 1.3 1.3 0 0 1-.751-.238zm-74.564-3.203c-.37-.619-.167-1.421.452-1.791s1.421-.167 1.791.452.169 1.421-.452 1.791a1.3 1.3 0 0 1-.667.185c-.446 0-.879-.227-1.123-.637zm78.201-2.514c-.645-.32-.91-1.104-.589-1.751s1.104-.91 1.75-.59a1.31 1.31 0 0 1 .591 1.751c-.229.46-.691.726-1.172.725-.195.001-.393-.043-.58-.135zm-81.303-3.725c-.27-.669.052-1.43.721-1.7s1.43.052 1.7.72a1.31 1.31 0 0 1-.721 1.701 1.3 1.3 0 0 1-.49.095c-.516 0-1.006-.308-1.211-.816zm84.023-2.483c-.687-.216-1.068-.95-.851-1.638a1.31 1.31 0 0 1 1.639-.852c.688.217 1.069.951.851 1.639-.176.556-.69.913-1.244.913a1.29 1.29 0 0 1-.395-.062zm-86.132-4.162c-.164-.702.272-1.405.974-1.569s1.405.271 1.57.974a1.31 1.31 0 0 1-.974 1.57 1.34 1.34 0 0 1-.299.034 1.31 1.31 0 0 1-1.271-1.009zm87.865-2.386c-.713-.108-1.202-.775-1.093-1.488s.775-1.202 1.488-1.093 1.203.775 1.093 1.488c-.098.647-.654 1.109-1.289 1.109a1.23 1.23 0 0 1-.199-.016zm-88.929-4.501c-.055-.72.483-1.348 1.203-1.403s1.346.482 1.403 1.202-.483 1.347-1.203 1.402l-.101.004a1.31 1.31 0 0 1-1.302-1.205zm88.333-3.539l.001-.049-.001-.05c-.001-.722.581-1.307 1.303-1.309s1.307.582 1.309 1.303l-.002.054c.002.017.002.033.002.051 0 .72-.585 1.305-1.306 1.305s-1.306-.585-1.306-1.305zm-87.136-2.03c-.72-.054-1.259-.68-1.205-1.4s.68-1.259 1.399-1.204a1.31 1.31 0 0 1 1.207 1.398c-.052.688-.624 1.21-1.302 1.21-.033 0-.066-.001-.098-.004zm86.624-4.62c-.111-.713.377-1.38 1.089-1.492s1.382.377 1.491 1.089a1.31 1.31 0 0 1-1.089 1.492 1.33 1.33 0 0 1-.202.016c-.634 0-1.189-.461-1.289-1.105zM61.27 95.946c-.701-.163-1.14-.865-.977-1.567s.865-1.14 1.567-.977 1.14.863.978 1.566h-.001c-.14.605-.676 1.012-1.271 1.012a1.25 1.25 0 0 1-.296-.034zm84.299-4.293c-.218-.687.161-1.421.847-1.64a1.31 1.31 0 0 1 1.642.848 1.31 1.31 0 0 1-1.245 1.703c-.553 0-1.066-.354-1.244-.91zm-82.456-2.231c-.67-.269-.994-1.029-.725-1.699s1.029-.994 1.699-.725.994 1.03.725 1.699a1.31 1.31 0 0 1-1.699.725zm79.985-3.856c-.321-.645-.059-1.429.587-1.751s1.429-.059 1.751.586.06 1.43-.585 1.751a1.3 1.3 0 0 1-.583.137c-.479 0-.941-.265-1.17-.724zm-77.163-2.304a1.31 1.31 0 0 1-.456-1.791c.368-.621 1.169-.824 1.789-.456s.824 1.17.456 1.79c-.244.41-.678.639-1.123.639a1.3 1.3 0 0 1-.666-.183zm73.791-3.331c-.417-.589-.277-1.404.311-1.821s1.404-.277 1.82.312.278 1.404-.311 1.821a1.3 1.3 0 0 1-.753.24c-.41 0-.812-.192-1.067-.552zm-70.061-2.325a1.31 1.31 0 0 1-.178-1.839c.458-.558 1.281-.636 1.839-.178s.636 1.281.178 1.839c-.259.313-.632.475-1.01.475-.291 0-.586-.098-.829-.298zm65.868-2.734c-.502-.519-.488-1.345.031-1.847s1.345-.487 1.847.031.487 1.347-.032 1.847a1.3 1.3 0 0 1-1.846-.031zm-61.322-2.287c-.481-.538-.434-1.363.103-1.844s1.364-.435 1.844.102a1.31 1.31 0 0 1-.103 1.845 1.3 1.3 0 0 1-1.844-.103zm56.409-2.078h-.002a1.31 1.31 0 0 1-.248-1.831c.436-.573 1.256-.686 1.83-.248s.685 1.255.249 1.83c-.257.338-.646.516-1.041.516-.275 0-.552-.088-.788-.266zm-51.154-2.195c-.394-.605-.223-1.413.382-1.807s1.414-.222 1.807.383.222 1.413-.383 1.806a1.29 1.29 0 0 1-.71.212c-.427 0-.846-.209-1.096-.593zm45.632-1.373c-.634-.344-.869-1.136-.525-1.771s1.137-.868 1.771-.525.869 1.136.525 1.771c-.237.436-.686.683-1.149.683a1.3 1.3 0 0 1-.622-.158zm-39.79-2.05c-.296-.657-.004-1.43.653-1.726a1.31 1.31 0 0 1 1.728.653c.297.657.004 1.431-.654 1.728a1.3 1.3 0 0 1-.535.116c-.498 0-.974-.288-1.191-.771zm33.789-.631c-.679-.242-1.033-.989-.79-1.669s.989-1.033 1.669-.79 1.033.99.79 1.669c-.191.534-.693.867-1.23.867a1.3 1.3 0 0 1-.439-.077zm-27.489-1.857c-.192-.695.215-1.414.912-1.606s1.414.217 1.606.912a1.31 1.31 0 0 1-.912 1.606 1.28 1.28 0 0 1-.349.047c-.573 0-1.098-.379-1.258-.959zm21.151.132c-.709-.135-1.174-.819-1.038-1.528s.819-1.173 1.528-1.037 1.173.819 1.037 1.528c-.119.625-.666 1.06-1.28 1.06a1.34 1.34 0 0 1-.247-.024zm-14.544-1.622c-.084-.716.43-1.365 1.147-1.447s1.365.43 1.447 1.147-.429 1.365-1.146 1.448l-.151.008c-.654 0-1.219-.49-1.296-1.155zm8.014.888a1.31 1.31 0 0 1-1.259-1.353 1.31 1.31 0 0 1 1.353-1.258c.721.026 1.284.631 1.258 1.352-.025.705-.605 1.259-1.303 1.259h-.049z"/><path d="M102.949 156.786a1.2 1.2 0 0 1-1.158-1.236c.022-.661.575-1.179 1.236-1.157s1.179.573 1.157 1.234c-.021.648-.551 1.159-1.195 1.159h-.04zm5.643-1.305a1.2 1.2 0 0 1 1.073-1.311c.658-.065 1.244.415 1.309 1.072s-.413 1.245-1.072 1.311c-.04.004-.081.005-.12.005a1.2 1.2 0 0 1-1.19-1.077zm-12.568.62a1.2 1.2 0 0 1-.984-1.378c.108-.653.725-1.093 1.378-.984a1.2 1.2 0 0 1 .983 1.379 1.2 1.2 0 0 1-1.179 1c-.065 0-.132-.006-.198-.017zm19.301-1.589c-.153-.644.244-1.289.888-1.442s1.287.245 1.44.887-.244 1.289-.887 1.442a1.2 1.2 0 0 1-.278.033c-.542-.001-1.033-.37-1.163-.92zm-26.075-.014a1.2 1.2 0 0 1-.79-1.497c.196-.632.866-.986 1.498-.79s.985.864.79 1.496c-.159.515-.632.844-1.144.844a1.22 1.22 0 0 1-.354-.053zm32.616-1.848a1.2 1.2 0 0 1 .687-1.548 1.2 1.2 0 0 1 1.548.686 1.2 1.2 0 0 1-.686 1.547 1.19 1.19 0 0 1-.431.081 1.2 1.2 0 0 1-1.118-.766zm-39.117-.652a1.2 1.2 0 0 1-.582-1.591 1.2 1.2 0 0 1 1.591-.581c.599.278.861.99.581 1.589-.203.437-.635.694-1.087.694-.169 0-.34-.035-.503-.111zm45.347-2.069c-.319-.58-.107-1.307.472-1.626a1.2 1.2 0 0 1 1.627.473 1.2 1.2 0 0 1-.473 1.626 1.19 1.19 0 0 1-.576.148c-.423 0-.832-.225-1.05-.621zm-51.453-1.278c-.558-.357-.721-1.097-.364-1.654s1.096-.721 1.653-.364a1.2 1.2 0 0 1-.647 2.206c-.22 0-.442-.061-.642-.188zm57.264-2.252a1.2 1.2 0 0 1 .252-1.674 1.2 1.2 0 0 1 1.675.252 1.2 1.2 0 0 1-.252 1.674c-.214.158-.464.234-.711.234-.367 0-.729-.168-.964-.486zm-62.868-1.878c-.505-.427-.569-1.183-.142-1.687a1.2 1.2 0 0 1 1.687-.142c.505.427.568 1.182.141 1.687a1.19 1.19 0 0 1-.914.425c-.273-.001-.547-.093-.772-.283zm68.16-2.393c-.46-.476-.447-1.233.029-1.693s1.233-.448 1.692.027a1.2 1.2 0 0 1-.027 1.694 1.19 1.19 0 0 1-.833.336 1.2 1.2 0 0 1-.861-.364zm-73.165-2.443c-.444-.49-.407-1.247.082-1.69s1.247-.407 1.691.083.406 1.247-.084 1.691a1.19 1.19 0 0 1-.803.31c-.327-.001-.652-.133-.887-.394zm77.847-2.494c-.52-.41-.607-1.162-.197-1.681s1.163-.607 1.682-.197a1.2 1.2 0 0 1 .196 1.682c-.237.299-.587.454-.941.454-.259 0-.521-.084-.74-.258zm-82.167-2.959c-.376-.545-.238-1.291.306-1.665s1.29-.239 1.665.305.238 1.29-.306 1.665a1.19 1.19 0 0 1-.679.212c-.38 0-.755-.18-.986-.517zm86.153-2.555c-.569-.338-.757-1.072-.418-1.641s1.072-.755 1.64-.418a1.2 1.2 0 0 1-.612 2.226c-.208 0-.419-.053-.61-.167zm-89.709-3.425c-.299-.591-.064-1.31.525-1.609s1.31-.064 1.609.525.064 1.31-.525 1.61c-.174.087-.359.129-.541.129-.436 0-.858-.239-1.068-.655zm92.925-2.573a1.2 1.2 0 0 1-.635-1.57 1.2 1.2 0 0 1 1.57-.635 1.2 1.2 0 0 1-.469 2.3 1.19 1.19 0 0 1-.466-.095zm-95.652-3.833c-.218-.625.112-1.306.737-1.524s1.307.112 1.524.736a1.2 1.2 0 0 1-.737 1.526 1.23 1.23 0 0 1-.393.067 1.2 1.2 0 0 1-1.131-.805zm98.036-2.543c-.639-.173-1.014-.832-.84-1.47s.832-1.014 1.47-.84a1.2 1.2 0 0 1 .84 1.47 1.2 1.2 0 0 1-1.155.883 1.18 1.18 0 0 1-.315-.043zm-99.878-4.17a1.2 1.2 0 0 1 .935-1.412 1.2 1.2 0 0 1 1.412.935 1.2 1.2 0 0 1-.935 1.412 1.22 1.22 0 0 1-.239.024 1.2 1.2 0 0 1-1.173-.959zm101.382-2.463c-.656-.088-1.117-.69-1.029-1.345s.689-1.117 1.345-1.029 1.115.689 1.028 1.345c-.08.602-.593 1.039-1.185 1.039-.052 0-.105-.003-.159-.01zm-102.308-4.434c-.044-.659.455-1.23 1.114-1.274s1.23.454 1.275 1.114-.454 1.23-1.114 1.274l-.082.003c-.624 0-1.15-.485-1.192-1.117zm101.716-3.537l.002-.053-.002-.053a1.2 1.2 0 0 1 1.195-1.2c.661-.002 1.198.534 1.199 1.195v.053l.002.058a1.2 1.2 0 0 1-1.198 1.197 1.2 1.2 0 0 1-1.198-1.197zM53.771 102.55c-.66-.043-1.16-.612-1.117-1.272s.611-1.16 1.272-1.117 1.16.613 1.117 1.273c-.041.633-.568 1.119-1.194 1.119-.026 0-.052-.002-.078-.003zm100.156-4.584c-.088-.654.37-1.258 1.026-1.346s1.258.371 1.347 1.026a1.2 1.2 0 0 1-1.026 1.347c-.054.007-.108.011-.162.011a1.2 1.2 0 0 1-1.185-1.037zm-99.424-2.178a1.2 1.2 0 0 1-.939-1.409 1.2 1.2 0 0 1 1.41-.938c.648.131 1.068.761.938 1.409a1.2 1.2 0 0 1-1.173.961 1.15 1.15 0 0 1-.236-.024zm98.095-4.326a1.2 1.2 0 0 1 .836-1.473 1.2 1.2 0 0 1 1.472.837c.176.637-.198 1.295-.836 1.472a1.23 1.23 0 0 1-.318.043 1.2 1.2 0 0 1-1.154-.879zm-96.465-2.284c-.624-.216-.956-.897-.739-1.523s.897-.956 1.523-.739.956.897.739 1.523c-.171.495-.635.806-1.131.806a1.18 1.18 0 0 1-.392-.067zm94.275-3.984c-.26-.607.022-1.311.631-1.571a1.2 1.2 0 0 1 1.571.631c.26.609-.024 1.313-.631 1.571-.154.067-.313.097-.47.097-.465 0-.908-.273-1.101-.727zM58.636 82.85c-.59-.298-.827-1.018-.529-1.608s1.019-.828 1.608-.529.828 1.018.53 1.608c-.212.418-.632.658-1.07.658-.181 0-.366-.042-.539-.129zm88.763-3.569a1.2 1.2 0 0 1 .416-1.641c.568-.338 1.303-.153 1.641.415s.153 1.302-.415 1.641a1.2 1.2 0 0 1-1.642-.415zm-85.435-2.367c-.544-.373-.683-1.119-.309-1.664s1.119-.684 1.664-.31.684 1.119.311 1.664c-.232.338-.607.52-.989.52a1.19 1.19 0 0 1-.676-.21zm81.664-3.098a1.2 1.2 0 0 1 .194-1.682c.518-.41 1.271-.324 1.681.195s.326 1.271-.193 1.681c-.219.175-.482.26-.743.26-.353 0-.703-.156-.939-.453zm-77.576-2.34a1.2 1.2 0 0 1-.086-1.691 1.2 1.2 0 0 1 1.691-.086 1.2 1.2 0 0 1 .086 1.691c-.236.261-.562.394-.889.394-.286 0-.572-.102-.802-.308zm73.112-2.575a1.2 1.2 0 0 1-.031-1.694c.459-.475 1.217-.49 1.692-.03s.49 1.216.031 1.693c-.235.243-.548.366-.862.366-.299 0-.598-.111-.83-.334zm-68.34-2.272c-.428-.504-.366-1.26.138-1.687s1.259-.366 1.687.139a1.2 1.2 0 0 1-.138 1.687 1.19 1.19 0 0 1-.775.283c-.34 0-.677-.144-.913-.422zm63.262-2.011c-.533-.392-.646-1.14-.254-1.673s1.141-.647 1.672-.255.648 1.14.256 1.673a1.2 1.2 0 0 1-.966.488 1.19 1.19 0 0 1-.708-.234zm-57.892-2.162c-.357-.556-.195-1.297.362-1.653s1.297-.196 1.654.36.196 1.298-.36 1.655c-.201.128-.424.189-.645.189-.394 0-.781-.194-1.01-.551zm52.291-1.408a1.2 1.2 0 0 1-.477-1.625 1.2 1.2 0 0 1 1.626-.477 1.2 1.2 0 0 1 .476 1.625c-.218.398-.628.623-1.052.623-.194 0-.391-.047-.573-.146zM82.07 59.037c-.279-.6-.02-1.311.58-1.591s1.311-.021 1.591.578a1.2 1.2 0 0 1-.579 1.591 1.19 1.19 0 0 1-.505.112c-.452 0-.883-.256-1.087-.691zm40.385-.78a1.2 1.2 0 0 1-.688-1.546c.236-.616.929-.926 1.546-.688s.926.928.69 1.546a1.2 1.2 0 0 1-1.118.768c-.144 0-.289-.025-.43-.08zm-34.101-1.826c-.197-.631.155-1.302.787-1.498s1.302.155 1.498.786-.155 1.302-.786 1.499c-.119.037-.239.055-.357.055-.511 0-.983-.329-1.143-.842zm27.752-.129a1.2 1.2 0 0 1-.891-1.44 1.2 1.2 0 0 1 1.441-.891 1.2 1.2 0 0 1 .89 1.441c-.13.551-.621.922-1.165.922a1.24 1.24 0 0 1-.275-.031zm-21.175-1.608c-.111-.652.328-1.269.981-1.38s1.269.329 1.379.982-.329 1.27-.981 1.379c-.068.012-.135.017-.201.017-.574 0-1.08-.414-1.178-.998zm14.625.521c-.658-.064-1.14-.649-1.075-1.307s.649-1.14 1.308-1.075 1.14.649 1.074 1.307c-.06.619-.581 1.081-1.189 1.081-.039 0-.078-.003-.118-.007zm-7.876-1.364c-.024-.661.494-1.214 1.155-1.237a1.2 1.2 0 0 1 1.238 1.155 1.2 1.2 0 0 1-1.156 1.238h-.042c-.643 0-1.173-.509-1.195-1.156z"/><path d="M105.309 162.306a1.09 1.09 0 0 1 1.056-1.119c.601-.019 1.103.454 1.119 1.055a1.09 1.09 0 0 1-1.055 1.121h-.033a1.09 1.09 0 0 1-1.087-1.057zm-5.826.857a1.09 1.09 0 0 1-.99-1.178 1.09 1.09 0 0 1 1.179-.99c.598.052 1.043.58.989 1.179-.048.567-.524.994-1.083.994a.76.76 0 0 1-.096-.005zm12.634-1.331a1.09 1.09 0 0 1 .917-1.237 1.09 1.09 0 0 1 1.236.917 1.09 1.09 0 0 1-.917 1.237 1.26 1.26 0 0 1-.162.011c-.53 0-.994-.388-1.074-.928zm-19.511.317a1.09 1.09 0 0 1-.844-1.288 1.09 1.09 0 0 1 1.288-.843 1.09 1.09 0 0 1-.221 2.155 1.07 1.07 0 0 1-.223-.024zm26.214-1.592a1.09 1.09 0 0 1 .764-1.337 1.09 1.09 0 0 1 1.336.764c.158.58-.182 1.178-.762 1.336-.097.026-.194.039-.288.039a1.09 1.09 0 0 1-1.05-.802zm-32.928-.234a1.09 1.09 0 0 1-.683-1.379 1.09 1.09 0 0 1 1.379-.683 1.09 1.09 0 0 1-.347 2.12c-.117 0-.234-.018-.349-.058zm39.433-1.831a1.09 1.09 0 0 1 .598-1.418 1.09 1.09 0 0 1 1.419.6 1.09 1.09 0 0 1-.598 1.417 1.1 1.1 0 0 1-.41.081 1.09 1.09 0 0 1-1.009-.68zm-45.88-.782c-.543-.257-.773-.908-.515-1.449s.908-.774 1.45-.515a1.09 1.09 0 0 1-.469 2.071c-.157 0-.316-.034-.466-.107zm52.089-2.04a1.09 1.09 0 0 1 .427-1.478c.525-.292 1.187-.101 1.478.425s.101 1.189-.425 1.479a1.09 1.09 0 0 1-1.48-.426zm-58.18-1.319c-.508-.32-.66-.992-.338-1.5a1.09 1.09 0 0 1 1.502-.34 1.09 1.09 0 0 1 .338 1.502c-.206.328-.56.507-.921.507a1.08 1.08 0 0 1-.581-.169zm64.012-2.22a1.09 1.09 0 0 1 .249-1.519c.488-.35 1.168-.239 1.518.25a1.09 1.09 0 0 1-.246 1.519 1.1 1.1 0 0 1-.635.203c-.338 0-.673-.156-.886-.453zm-69.66-1.833a1.09 1.09 0 0 1-.159-1.532 1.09 1.09 0 0 1 1.531-.16 1.09 1.09 0 0 1 .159 1.532c-.214.265-.529.402-.845.402a1.09 1.09 0 0 1-.686-.242zm75.036-2.369a1.09 1.09 0 0 1 .068-1.538 1.09 1.09 0 0 1 1.538.068 1.09 1.09 0 0 1-.068 1.537c-.209.191-.472.286-.735.286a1.09 1.09 0 0 1-.803-.353zm-80.167-2.322a1.09 1.09 0 0 1 .022-1.539 1.09 1.09 0 0 1 1.538.021 1.09 1.09 0 0 1-.779 1.847 1.09 1.09 0 0 1-.781-.329zm85.012-2.484a1.09 1.09 0 0 1-.114-1.536 1.09 1.09 0 0 1 1.536-.114 1.09 1.09 0 0 1 .112 1.536c-.214.249-.518.377-.824.377-.252 0-.505-.087-.71-.263zm-89.556-2.777a1.09 1.09 0 0 1 .202-1.525 1.09 1.09 0 0 1 1.527.202 1.09 1.09 0 0 1-.204 1.525c-.197.152-.43.225-.659.225-.328 0-.652-.147-.866-.427zm93.803-2.567a1.09 1.09 0 0 1-.294-1.511 1.09 1.09 0 0 1 1.511-.294 1.09 1.09 0 0 1-.61 1.99 1.09 1.09 0 0 1-.607-.185zm-97.694-3.191a1.09 1.09 0 0 1 .381-1.492 1.09 1.09 0 0 1 1.492.382 1.09 1.09 0 0 1-.381 1.491c-.174.104-.366.153-.554.153a1.09 1.09 0 0 1-.938-.534zm101.28-2.619a1.09 1.09 0 0 1-.47-1.465c.274-.535.931-.746 1.465-.47s.746.931.47 1.465c-.193.375-.573.591-.967.591a1.07 1.07 0 0 1-.498-.121zm-104.463-3.558a1.09 1.09 0 0 1 .555-1.436 1.09 1.09 0 0 1 1.435.555 1.09 1.09 0 0 1-.555 1.437c-.142.063-.293.093-.439.093a1.09 1.09 0 0 1-.997-.649zm107.336-2.636c-.563-.209-.85-.834-.641-1.398a1.09 1.09 0 0 1 1.399-.642c.564.209.851.836.641 1.399-.162.439-.577.711-1.02.711-.125 0-.253-.023-.379-.07zm-109.764-3.88c-.176-.574.148-1.183.722-1.358a1.09 1.09 0 0 1 1.36.722h-.001c.176.575-.146 1.183-.721 1.358a1.08 1.08 0 0 1-.319.049 1.09 1.09 0 0 1-1.041-.771zm111.88-2.612c-.585-.139-.944-.728-.803-1.312s.727-.944 1.312-.803.945.728.803 1.312a1.09 1.09 0 0 1-1.057.834 1.12 1.12 0 0 1-.255-.031zm-113.515-4.145a1.09 1.09 0 0 1 .879-1.264 1.09 1.09 0 0 1 1.264.879 1.09 1.09 0 0 1-.879 1.264 1.06 1.06 0 0 1-.193.017 1.09 1.09 0 0 1-1.071-.896zm114.84-2.549c-.596-.069-1.023-.61-.953-1.207a1.09 1.09 0 0 1 1.208-.955 1.09 1.09 0 0 1 .953 1.208 1.09 1.09 0 0 1-1.079.962c-.041 0-.084-.003-.129-.008zm-115.66-4.354a1.09 1.09 0 0 1 1.021-1.151 1.09 1.09 0 0 1 1.152 1.021 1.09 1.09 0 0 1-1.023 1.152c-.022.002-.043.002-.065.002a1.09 1.09 0 0 1-1.085-1.024zm115.099-3.537l.001-.058-.002-.06h.001a1.09 1.09 0 0 1 1.085-1.092 1.09 1.09 0 0 1 1.091 1.086l-.001.061.001.063a1.09 1.09 0 0 1-1.088 1.088 1.09 1.09 0 0 1-1.088-1.088zM47.09 102.434a1.09 1.09 0 0 1-1.024-1.149 1.09 1.09 0 0 1 1.149-1.024 1.09 1.09 0 0 1 1.024 1.149 1.09 1.09 0 0 1-1.085 1.026c-.021 0-.042-.001-.064-.002zm113.677-4.537a1.09 1.09 0 0 1 .952-1.211c.597-.072 1.137.354 1.209.951a1.09 1.09 0 0 1-.951 1.211c-.044.005-.087.008-.13.008a1.09 1.09 0 0 1-1.08-.959zM47.755 95.643a1.09 1.09 0 0 1-.882-1.261 1.09 1.09 0 0 1 1.261-.882 1.09 1.09 0 0 1 .881 1.261 1.09 1.09 0 0 1-1.071.899c-.062 0-.127-.005-.191-.017zm111.822-4.333a1.09 1.09 0 0 1 .801-1.314 1.09 1.09 0 0 1 1.315.8 1.09 1.09 0 0 1-.801 1.314 1.1 1.1 0 0 1-.258.031 1.09 1.09 0 0 1-1.057-.832zm-110.36-2.332a1.09 1.09 0 0 1-.725-1.357 1.09 1.09 0 0 1 1.358-.726 1.09 1.09 0 0 1-.316 2.13c-.104 0-.212-.015-.317-.047zm108.394-4.065a1.09 1.09 0 0 1 .639-1.401 1.09 1.09 0 0 1 1.401.639 1.09 1.09 0 0 1-1.02 1.471 1.09 1.09 0 0 1-1.02-.708zM51.466 82.53a1.09 1.09 0 0 1-.559-1.434 1.09 1.09 0 0 1 1.435-.558 1.09 1.09 0 0 1-.439 2.084c-.146 0-.295-.03-.437-.093zm103.433-3.738c-.277-.534-.068-1.19.466-1.467a1.09 1.09 0 0 1 1.467.467 1.09 1.09 0 0 1-.468 1.467 1.08 1.08 0 0 1-.499.121c-.393 0-.773-.214-.966-.589zM54.466 76.397c-.518-.306-.69-.973-.384-1.49a1.09 1.09 0 0 1 1.49-.384 1.09 1.09 0 0 1 .384 1.49c-.204.345-.566.535-.939.535-.188 0-.379-.048-.551-.151zm97.014-3.356a1.09 1.09 0 0 1 .29-1.512 1.09 1.09 0 0 1 1.512.291 1.09 1.09 0 0 1-.291 1.511c-.187.127-.4.188-.61.188-.349 0-.691-.167-.901-.478zm-93.31-2.377c-.478-.364-.571-1.047-.205-1.525a1.09 1.09 0 0 1 1.525-.205 1.09 1.09 0 0 1 .205 1.525c-.214.281-.538.428-.866.428-.231 0-.462-.073-.66-.223zm89.235-2.933a1.09 1.09 0 0 1 .11-1.536 1.09 1.09 0 0 1 1.536.111 1.09 1.09 0 0 1-.111 1.535 1.08 1.08 0 0 1-.712.265 1.08 1.08 0 0 1-.823-.375zm-84.881-2.323a1.09 1.09 0 0 1-.025-1.538 1.09 1.09 0 0 1 1.538-.025 1.09 1.09 0 0 1 .025 1.538c-.213.221-.497.332-.782.332a1.08 1.08 0 0 1-.756-.307zm80.209-2.472a1.09 1.09 0 0 1-.071-1.539 1.09 1.09 0 0 1 1.537-.07 1.09 1.09 0 0 1 .071 1.539c-.214.235-.51.354-.805.354a1.09 1.09 0 0 1-.732-.283zM67.464 60.7a1.09 1.09 0 0 1 .157-1.532 1.09 1.09 0 0 1 1.531.157 1.09 1.09 0 0 1-.157 1.532 1.08 1.08 0 0 1-.686.244 1.09 1.09 0 0 1-.845-.401zm70.064-1.98a1.09 1.09 0 0 1-.252-1.517 1.09 1.09 0 0 1 1.519-.252 1.09 1.09 0 0 1-.635 1.973 1.08 1.08 0 0 1-.632-.204zm-64.605-2.113a1.09 1.09 0 0 1 .335-1.502c.508-.323 1.181-.173 1.502.335s.172 1.181-.335 1.502a1.08 1.08 0 0 1-.583.17 1.09 1.09 0 0 1-.919-.505zm58.94-1.456a1.09 1.09 0 0 1-.428-1.478c.288-.526.95-.718 1.477-.428s.719.951.429 1.477a1.09 1.09 0 0 1-.955.564c-.177 0-.357-.043-.523-.134zm-53.037-1.963a1.09 1.09 0 0 1 .511-1.452 1.09 1.09 0 0 1 1.452.512 1.09 1.09 0 0 1-.981 1.559 1.09 1.09 0 0 1-.982-.619zm46.988-.911c-.557-.225-.827-.859-.601-1.416a1.09 1.09 0 0 1 1.417-.602 1.09 1.09 0 0 1-.409 2.097 1.07 1.07 0 0 1-.407-.08zm-40.719-1.784a1.09 1.09 0 0 1 .682-1.38c.568-.193 1.187.111 1.379.681s-.111 1.187-.68 1.38a1.09 1.09 0 0 1-1.38-.68zm34.372-.349a1.09 1.09 0 0 1-.767-1.335 1.09 1.09 0 0 1 1.335-.767 1.09 1.09 0 0 1-.284 2.139 1.07 1.07 0 0 1-.284-.038zm-27.825-1.582a1.09 1.09 0 0 1 .84-1.289 1.09 1.09 0 0 1 1.289.84c.124.587-.252 1.166-.84 1.289-.076.017-.151.025-.226.025a1.09 1.09 0 0 1-1.063-.865zm21.271.221a1.09 1.09 0 0 1-.919-1.234c.086-.596.64-1.007 1.234-.919a1.09 1.09 0 0 1 .92 1.234 1.09 1.09 0 0 1-1.077.931c-.052 0-.104-.004-.158-.012zM98.37 47.425c-.055-.598.388-1.127.986-1.18a1.09 1.09 0 0 1 1.182.987 1.09 1.09 0 0 1-.987 1.181l-.098.004c-.558 0-1.033-.426-1.083-.991zm7.874.781a1.09 1.09 0 0 1-1.059-1.118 1.09 1.09 0 0 1 1.119-1.058 1.09 1.09 0 0 1 1.058 1.118 1.09 1.09 0 0 1-1.088 1.059c-.011 0-.021 0-.03-.001z"/><path d="M101.157 169.872a.98.98 0 0 1-.926-1.031c.027-.54.488-.954 1.029-.926a.98.98 0 0 1-.051 1.958c-.017 0-.035-.001-.052-.001zm6.032-.929a.98.98 0 0 1 .926-1.032.98.98 0 0 1 .106 1.957l-.054.001a.98.98 0 0 1-.978-.926zm-13.057.176a.98.98 0 0 1-.81-1.124.98.98 0 0 1 1.123-.81.98.98 0 0 1-.155 1.948c-.052-.001-.104-.006-.158-.014zm19.988-.818a.98.98 0 0 1 .808-1.125.98.98 0 0 1 1.125.809.98.98 0 0 1-.809 1.124c-.053.009-.107.013-.159.013a.98.98 0 0 1-.965-.821zm-26.89-.691a.98.98 0 0 1-.683-1.204.98.98 0 0 1 1.204-.683h.001c.521.143.827.683.682 1.204-.119.435-.513.719-.943.719-.086 0-.173-.011-.261-.036zm33.71-.698a.98.98 0 0 1 .681-1.205.98.98 0 0 1 1.205.682.98.98 0 0 1-.681 1.205.96.96 0 0 1-.263.036c-.429.001-.822-.284-.942-.718zm-40.41-1.554a.98.98 0 0 1-.548-1.273.98.98 0 0 1 1.272-.547.98.98 0 0 1-.362 1.89c-.122 0-.243-.023-.362-.07zm47.037-.568a.98.98 0 1 1 1.821-.726.98.98 0 0 1-.547 1.272.97.97 0 0 1-.363.07.98.98 0 0 1-.911-.616zm-53.452-2.4a.98.98 0 0 1-.406-1.324.98.98 0 0 1 1.324-.407.98.98 0 0 1-.46 1.846.97.97 0 0 1-.458-.115zm59.811-.431a.98.98 0 0 1 .406-1.325.98.98 0 0 1 1.324.405.98.98 0 0 1-.864 1.439.98.98 0 0 1-.866-.519zm-65.865-3.214a.98.98 0 0 1-.261-1.361.98.98 0 0 1 1.622 1.1.98.98 0 0 1-1.361.261zm71.878-.29a.98.98 0 0 1 .26-1.36.98.98 0 0 1 1.36.259c.305.448.188 1.056-.26 1.36a.97.97 0 0 1-.55.17c-.313 0-.621-.15-.81-.429zm-77.503-3.987a.98.98 0 0 1 1.268-1.494.98.98 0 0 1 .112 1.381c-.193.228-.469.345-.747.345-.225 0-.449-.076-.633-.232zm83.103-.145a.98.98 0 0 1 .112-1.381.98.98 0 0 1 1.38.111.98.98 0 0 1-.112 1.382.97.97 0 0 1-.633.232c-.277 0-.554-.116-.747-.344zm-88.234-4.712a.98.98 0 0 1 .035-1.385.98.98 0 0 1 1.386.037.98.98 0 0 1-.037 1.384c-.189.18-.432.269-.674.269a.97.97 0 0 1-.71-.305zm93.357.001a.98.98 0 0 1-.037-1.384.98.98 0 0 1 1.385-.038.98.98 0 0 1 .038 1.384c-.194.204-.452.306-.712.306a.98.98 0 0 1-.674-.268zm-97.937-5.38a.98.98 0 0 1 .185-1.373.98.98 0 0 1 1.373.185.98.98 0 0 1-.185 1.373c-.178.134-.386.2-.593.2a.98.98 0 0 1-.78-.385zm102.526.144a.98.98 0 0 1-.187-1.372.98.98 0 1 1 1.56 1.187.98.98 0 0 1-.781.387.97.97 0 0 1-.592-.202zm-106.499-5.985a.98.98 0 0 1 .332-1.345.98.98 0 0 1 1.345.332.98.98 0 0 1-.838 1.486c-.332 0-.656-.168-.839-.473zm110.497.287a.98.98 0 0 1-.333-1.345.98.98 0 0 1 1.344-.333.98.98 0 0 1-.507 1.818.97.97 0 0 1-.504-.14zm-113.815-6.523a.98.98 0 0 1 .475-1.301.98.98 0 0 1 1.301.477v-.001a.98.98 0 0 1-.475 1.302c-.135.061-.274.091-.413.091-.369 0-.722-.21-.888-.568zm117.174.425a.98.98 0 0 1-.477-1.301.98.98 0 0 1 1.301-.477.98.98 0 0 1 .476 1.301c-.165.358-.519.568-.889.568-.138 0-.278-.03-.411-.091zM42.81 125.594a.98.98 0 1 1 1.857-.627h-.001a.98.98 0 0 1-.614 1.242c-.105.034-.21.051-.313.051a.98.98 0 0 1-.928-.666zm122.475.559a.98.98 0 0 1-.616-1.241.98.98 0 0 1 1.242-.616.98.98 0 0 1-.314 1.908.97.97 0 0 1-.312-.051zm-124.367-7.367a.98.98 0 0 1 .747-1.168.98.98 0 0 1 1.166.747.98.98 0 0 1-.746 1.167c-.07.015-.142.023-.212.023a.98.98 0 0 1-.956-.769zm126.328.687a.98.98 0 0 1-.747-1.167.98.98 0 0 1 1.167-.747.98.98 0 0 1-.209 1.936c-.069 0-.14-.008-.211-.022zm-127.468-7.66c-.059-.536.329-1.021.867-1.078a.98.98 0 0 1 1.08.868.98.98 0 0 1-.868 1.079.96.96 0 0 1-.107.006.98.98 0 0 1-.972-.875zm128.691.807a.98.98 0 0 1-.87-1.078.98.98 0 0 1 1.079-.869.98.98 0 0 1 .868 1.079c-.053.502-.478.875-.973.874a.92.92 0 0 1-.104-.006zm-129.075-7.859a.98.98 0 0 1 .978-.981.98.98 0 0 1 .981.979.98.98 0 0 1-.98.98c-.541.002-.98-.437-.98-.978zm128.571-.062l.001-.06-.001-.062a.98.98 0 0 1 .977-.982.98.98 0 0 1 .982.978l-.003.062c.002.02.003.041.003.063a.98.98 0 0 1-.98.98.98.98 0 0 1-.979-.979zM40.634 98.785a.98.98 0 0 1-.871-1.077.98.98 0 0 1 1.077-.871.98.98 0 0 1-.102 1.954c-.035 0-.069-.001-.104-.005zm126.952-1.051a.98.98 0 0 1 .867-1.08.98.98 0 0 1 1.08.867.98.98 0 0 1-.867 1.08l-.107.007a.98.98 0 0 1-.973-.874zM41.64 91.899a.98.98 0 0 1-.748-1.166.98.98 0 0 1 1.165-.748.98.98 0 0 1-.207 1.937c-.069 0-.139-.007-.209-.022zm124.833-.926a.98.98 0 0 1 .745-1.169.98.98 0 0 1 1.167.746.98.98 0 0 1-.744 1.167.99.99 0 0 1-.213.023.98.98 0 0 1-.955-.768zM43.388 85.159a.98.98 0 0 1-.618-1.239.98.98 0 0 1 1.241-.618.98.98 0 0 1-.312 1.909c-.103 0-.208-.017-.311-.052zm121.243-.786a.98.98 0 0 1 .613-1.242.98.98 0 0 1 1.242.613.98.98 0 0 1-.613 1.242c-.104.035-.21.052-.314.052a.98.98 0 0 1-.928-.665zm-118.77-5.722a.98.98 0 0 1-.478-1.301.98.98 0 0 1 1.299-.478.98.98 0 0 1 .478 1.299c-.164.359-.519.569-.889.569a.97.97 0 0 1-.41-.09zm116.22-.64a.98.98 0 0 1 .476-1.301c.489-.229 1.072-.017 1.3.474a.98.98 0 0 1-.474 1.302.99.99 0 0 1-.412.091.98.98 0 0 1-.89-.567zM49.025 72.45a.98.98 0 1 1 1.011-1.68.98.98 0 0 1 .334 1.344c-.184.307-.508.475-.841.475-.171 0-.346-.046-.504-.14zm109.832-.483a.98.98 0 0 1 .33-1.345c.464-.281 1.066-.133 1.345.33a.98.98 0 0 1-.836 1.486.98.98 0 0 1-.839-.472zM52.844 66.628a.98.98 0 0 1-.188-1.373.98.98 0 0 1 1.373-.187.98.98 0 0 1 .188 1.371h-.001c-.192.255-.485.388-.78.388-.206 0-.415-.065-.592-.2zm102.154-.324a.98.98 0 0 1 .183-1.373.98.98 0 0 1 1.373.183.98.98 0 0 1-.184 1.374.97.97 0 0 1-.594.201c-.295 0-.586-.133-.778-.385zm-97.732-5.052a.98.98 0 0 1-.039-1.386.98.98 0 0 1 1.384-.038.98.98 0 0 1-.673 1.691c-.242 0-.483-.089-.673-.268zm93.285-.163a.98.98 0 0 1 .035-1.384.98.98 0 0 1 1.384.035c.374.392.358 1.012-.035 1.384-.189.18-.432.27-.674.27-.26 0-.518-.103-.71-.306zm-88.311-4.707a.98.98 0 0 1 .111-1.38.98.98 0 0 1 1.38.111.98.98 0 0 1-.744 1.614.98.98 0 0 1-.747-.345zm83.327 0a.98.98 0 0 1-.114-1.38.98.98 0 1 1 1.496 1.267.98.98 0 0 1-1.382.114zm-77.859-4.304a.98.98 0 0 1 .258-1.362.98.98 0 0 1 1.361.259.98.98 0 0 1-.258 1.361c-.168.115-.36.17-.55.17a.98.98 0 0 1-.811-.427zm72.399.161c-.448-.303-.566-.912-.261-1.359a.98.98 0 0 1 1.359-.263.98.98 0 0 1 .263 1.36c-.189.281-.499.431-.813.431-.189 0-.38-.055-.548-.169zm-66.5-3.851a.98.98 0 0 1 .405-1.326.98.98 0 0 1 1.324.404.98.98 0 0 1-.404 1.326.97.97 0 0 1-.46.115.98.98 0 0 1-.866-.519zm60.624.321a.98.98 0 0 1-.407-1.324.98.98 0 0 1 1.324-.407.98.98 0 0 1-.46 1.845.98.98 0 0 1-.457-.114zm-54.358-3.352a.98.98 0 0 1 .546-1.273.98.98 0 0 1 1.273.546.98.98 0 0 1-.546 1.273c-.119.047-.242.071-.363.071a.98.98 0 0 1-.91-.616zm48.134.479c-.503-.198-.748-.768-.548-1.271a.98.98 0 0 1 1.272-.55.98.98 0 0 1-.362 1.891c-.12 0-.243-.023-.362-.07zm-41.575-2.811a.98.98 0 0 1 .682-1.207.98.98 0 0 1 1.206.682.98.98 0 0 1-.681 1.205c-.087.025-.176.037-.264.037a.98.98 0 0 1-.943-.717zm35.075.633a.98.98 0 0 1-.684-1.205.98.98 0 1 1 1.89.521c-.121.434-.515.72-.945.72a1 1 0 0 1-.261-.035zm-28.303-2.236a.98.98 0 0 1 .808-1.126.98.98 0 0 1 1.124.808.98.98 0 0 1-.807 1.124c-.053.009-.107.013-.16.013a.98.98 0 0 1-.965-.82zm21.608.779a.98.98 0 0 1-.811-1.123.98.98 0 0 1 1.123-.811.98.98 0 0 1-.154 1.947c-.053 0-.105-.004-.158-.013zm-14.702-1.638a.98.98 0 0 1 1.957-.107.98.98 0 0 1-.925 1.032c-.018.001-.036.001-.054.001a.98.98 0 0 1-.978-.926zm7.887.914a.98.98 0 0 1-.927-1.028.98.98 0 0 1 1.029-.927c.541.027.956.488.927 1.028a.98.98 0 0 1-.977.93c-.017 0-.034-.001-.052-.003z"/><path d="M103.822 175.669a.87.87 0 0 1 1.741-.002.87.87 0 1 1-1.741.002zm-6.169.533a.87.87 0 1 1 .168-1.733.87.87 0 0 1 .782.95.87.87 0 0 1-.866.787c-.027 0-.056-.002-.085-.004zm13.127-.789a.87.87 0 1 1 1.733-.17.87.87 0 0 1-.782.952.83.83 0 0 1-.085.004.87.87 0 0 1-.866-.786zm-20.1-.234a.87.87 0 1 1 .337-1.708.87.87 0 0 1-.167 1.725c-.056 0-.112-.005-.17-.017zm27.001-.697a.87.87 0 1 1 1.708-.34.87.87 0 0 1-.686 1.024c-.056.012-.114.017-.17.017a.87.87 0 0 1-.852-.701zm-33.841-1.006a.87.87 0 0 1 .503-1.667.87.87 0 0 1-.251 1.704.88.88 0 0 1-.252-.037zm40.616-.601a.87.87 0 0 1 1.666-.505.87.87 0 0 1-.58 1.085.82.82 0 0 1-.253.038.87.87 0 0 1-.833-.618zm-47.255-1.771a.87.87 0 1 1 .666-1.609.87.87 0 0 1-.333 1.676c-.111 0-.224-.021-.333-.067zm53.84-.496a.87.87 0 1 1 1.609-.667.87.87 0 0 1-.472 1.137.85.85 0 0 1-.333.067.87.87 0 0 1-.804-.537zm-60.213-2.518a.87.87 0 1 1 .821-1.535v.001a.87.87 0 0 1 .358 1.178c-.157.292-.458.459-.769.459-.138 0-.279-.032-.41-.103zm66.541-.387a.87.87 0 0 1 1.535-.823.87.87 0 0 1-.355 1.178c-.132.07-.272.104-.412.104a.87.87 0 0 1-.768-.459zm-72.587-3.238c-.4-.268-.507-.809-.24-1.208a.87.87 0 0 1 1.448.968c-.168.25-.444.386-.725.386-.167 0-.335-.047-.483-.146zm78.6-.277a.87.87 0 1 1 1.447-.969.87.87 0 0 1-.722 1.356.87.87 0 0 1-.725-.387zm-84.262-3.923a.87.87 0 1 1 1.105-1.346.87.87 0 0 1-.553 1.543c-.194 0-.39-.064-.552-.197zm89.902-.163a.87.87 0 1 1 1.346-1.105.87.87 0 0 1-.121 1.225c-.161.133-.357.198-.552.198a.87.87 0 0 1-.673-.318zm-95.126-4.569a.87.87 0 1 1 1.23-1.232.87.87 0 0 1 0 1.231c-.17.171-.393.256-.615.256s-.445-.085-.615-.255zm100.341-.047a.87.87 0 0 1 1.23-1.233.87.87 0 0 1 .002 1.232c-.172.17-.394.256-.617.256s-.445-.085-.615-.255zm-105.081-5.171a.87.87 0 1 1 1.344-1.106.87.87 0 0 1-.671 1.423.87.87 0 0 1-.673-.317zm109.821.068a.87.87 0 0 1 1.106-1.345.87.87 0 0 1-.554 1.543.87.87 0 0 1-.552-.198zM44.948 144.66a.87.87 0 1 1 1.446-.97.87.87 0 0 1-.722 1.355.87.87 0 0 1-.723-.385zm118.25.183a.87.87 0 1 1 .967-1.448.87.87 0 0 1 .241 1.208c-.169.25-.444.386-.725.386-.166 0-.335-.047-.483-.146zm-121.884-6.225a.87.87 0 1 1 1.535-.822.87.87 0 0 1-.355 1.179.88.88 0 0 1-.411.103.87.87 0 0 1-.768-.46zm125.541.297a.87.87 0 1 1 .822-1.535.87.87 0 0 1 .356 1.178c-.156.294-.457.46-.768.46-.138 0-.279-.032-.41-.103zm-128.564-6.664a.87.87 0 0 1 .47-1.138c.444-.184.953.026 1.139.47a.87.87 0 0 1-.47 1.138c-.11.045-.222.066-.334.066a.87.87 0 0 1-.805-.536zm131.623.407a.87.87 0 0 1 .666-1.609.87.87 0 0 1-.334 1.675c-.111.001-.224-.02-.332-.066zm-134.003-7.043c-.141-.46.119-.946.58-1.085a.87.87 0 0 1 .505 1.666.89.89 0 0 1-.253.037.87.87 0 0 1-.832-.618zm136.428.516c-.46-.14-.719-.626-.581-1.087s.625-.719 1.087-.58.719.625.581 1.086c-.115.376-.46.618-.834.618-.083 0-.168-.012-.253-.037zm-138.142-7.353c-.093-.471.213-.93.684-1.024a.87.87 0 1 1 .34 1.709.9.9 0 0 1-.17.017c-.408 0-.772-.288-.854-.702zm139.912.618a.87.87 0 1 1 .338-1.708.87.87 0 0 1 .686 1.022c-.082.414-.447.702-.854.702a.98.98 0 0 1-.17-.016zm-140.944-7.59a.87.87 0 1 1 1.733-.17.87.87 0 0 1-.781.951c-.029.004-.059.005-.086.005-.443 0-.822-.337-.866-.786zm142.042.713a.87.87 0 0 1 .169-1.733.87.87 0 0 1 .782.951.87.87 0 0 1-.866.786c-.029 0-.056-.002-.085-.004zm-142.39-7.751c0-.481.389-.871.87-.873a.87.87 0 0 1 .001 1.743.87.87 0 0 1-.871-.87zm141.94-.069l.002-.067-.002-.069a.87.87 0 1 1 1.742-.003l-.004.068a.55.55 0 0 1 .004.07.87.87 0 0 1-1.742.001zM33.935 98.678a.87.87 0 0 1 .166-1.733.87.87 0 0 1 .784.951.87.87 0 0 1-.866.787c-.027 0-.056-.001-.084-.005zm140.477-.985a.87.87 0 1 1 1.733-.171.87.87 0 0 1-.781.952l-.087.004a.87.87 0 0 1-.865-.785zM34.856 91.777a.87.87 0 1 1 .337-1.71.87.87 0 0 1-.167 1.725.94.94 0 0 1-.17-.016zm138.542-.885a.87.87 0 1 1 1.707-.341.87.87 0 0 1-.683 1.024c-.057.012-.115.017-.171.017a.87.87 0 0 1-.853-.7zM36.452 84.998a.87.87 0 1 1 .504-1.666.87.87 0 0 1-.252 1.704c-.083 0-.167-.012-.252-.038zm135.267-.776a.87.87 0 1 1 1.666-.508.87.87 0 0 1-.58 1.088.89.89 0 0 1-.253.038.87.87 0 0 1-.833-.618zM38.71 78.411a.87.87 0 1 1 .666-1.609.87.87 0 0 1-.333 1.676c-.111 0-.223-.022-.333-.067zm130.68-.659a.87.87 0 1 1 1.608-.668.87.87 0 0 1-.803 1.205c-.341 0-.665-.202-.805-.537zM41.606 72.077a.87.87 0 1 1 .821-1.536c.423.227.584.755.358 1.178-.158.294-.458.461-.769.461-.138 0-.279-.033-.41-.103zm124.829-.535a.87.87 0 1 1 1.533-.824.87.87 0 0 1-.354 1.179c-.13.07-.273.103-.411.103a.87.87 0 0 1-.768-.458zM45.113 66.059a.87.87 0 1 1 .966-1.448.87.87 0 0 1-.484 1.594c-.166 0-.333-.047-.482-.146zm117.771-.408a.87.87 0 0 1 1.444-.972.87.87 0 0 1-.236 1.208c-.149.101-.319.149-.485.149a.87.87 0 0 1-.723-.385zM49.19 60.413c-.371-.306-.426-.854-.121-1.226a.87.87 0 1 1 1.348 1.105.87.87 0 0 1-.674.319c-.195 0-.391-.066-.552-.197zm109.582-.277a.87.87 0 0 1 1.344-1.108.87.87 0 0 1-.118 1.225c-.162.135-.358.2-.554.2a.87.87 0 0 1-.672-.317zM53.8 55.192a.87.87 0 1 1 1.23-1.233.87.87 0 0 1 .001 1.23c-.171.171-.393.256-.616.256a.87.87 0 0 1-.615-.253zm100.342-.144a.87.87 0 0 1 1.23-1.234.87.87 0 0 1 .001 1.231c-.169.171-.393.256-.616.256a.87.87 0 0 1-.615-.253zm-95.246-4.604a.87.87 0 1 1 1.344-1.107.87.87 0 0 1-.119 1.225c-.162.133-.358.198-.553.198a.87.87 0 0 1-.672-.316zm90.143-.009a.87.87 0 1 1 1.102-1.348.87.87 0 0 1-.552 1.545c-.193 0-.389-.065-.55-.197zm-84.608-4.219a.87.87 0 1 1 1.446-.97.87.87 0 0 1-.238 1.208.86.86 0 0 1-.485.148c-.281 0-.556-.135-.723-.385zm79.079.127a.87.87 0 1 1 .966-1.45.87.87 0 0 1-.485 1.596.87.87 0 0 1-.481-.146zM70.352 42.55a.87.87 0 1 1 1.533-.824.87.87 0 0 1-.767 1.282.87.87 0 0 1-.767-.458zm67.255.26a.87.87 0 0 1 .82-1.536.87.87 0 0 1-.411 1.639.87.87 0 0 1-.409-.103zm-61.003-3.326c-.184-.444.026-.953.469-1.139a.87.87 0 1 1 .67 1.608.87.87 0 0 1-1.139-.469zm54.783.392a.87.87 0 0 1 .664-1.61.87.87 0 0 1-.333 1.675c-.111 0-.223-.021-.331-.065zm-48.258-2.827a.87.87 0 1 1 1.665-.508.87.87 0 0 1-.578 1.086.86.86 0 0 1-.255.038.87.87 0 0 1-.832-.616zm41.779.52a.87.87 0 1 1 .501-1.666.87.87 0 0 1-.251 1.704.83.83 0 0 1-.25-.038zm-35.047-2.3a.87.87 0 1 1 1.707-.34.87.87 0 0 1-.683 1.024.96.96 0 0 1-.171.017.87.87 0 0 1-.853-.701zm28.372.645a.87.87 0 1 1 .334-1.71.87.87 0 0 1-.166 1.725.91.91 0 0 1-.168-.016zm-21.498-1.753a.87.87 0 0 1 .781-.952c.478-.047.904.303.952.781a.87.87 0 0 1-.781.952l-.088.004a.87.87 0 0 1-.865-.785zm14.693.761a.87.87 0 0 1 .165-1.733.87.87 0 0 1-.082 1.737c-.027 0-.056-.001-.083-.004zm-7.743-1.192a.87.87 0 1 1 1.742-.001.87.87 0 1 1-1.742.001z"/><path d="M101.181 183.038c-.421-.019-.747-.374-.729-.795a.76.76 0 1 1 1.522.066c-.018.409-.355.729-.761.729h-.032zm6.238-.731c-.018-.42.307-.776.728-.795a.76.76 0 0 1 .068 1.523l-.036.001a.76.76 0 0 1-.76-.729zm-13.245.111a.76.76 0 0 1-.654-.855c.056-.417.439-.71.855-.655a.76.76 0 0 1 .654.857.76.76 0 0 1-.754.661.7.7 0 0 1-.102-.008zm20.189-.663a.76.76 0 1 1 1.51-.203.76.76 0 0 1-.653.857.87.87 0 0 1-.102.006c-.376 0-.703-.278-.755-.66zm-27.113-.58c-.41-.094-.667-.502-.575-.912s.501-.667.912-.575.667.501.575.912a.76.76 0 0 1-.742.593.83.83 0 0 1-.17-.018zm33.98-.592a.76.76 0 1 1 1.486-.338c.093.41-.163.819-.573.913a.77.77 0 0 1-.17.018.76.76 0 0 1-.743-.593zm-40.763-1.273a.76.76 0 0 1 .469-1.448.76.76 0 0 1-.234 1.486c-.078 0-.158-.012-.235-.038zm47.496-.512c-.129-.4.091-.829.49-.96a.76.76 0 0 1 .472 1.448c-.079.027-.158.038-.237.038a.76.76 0 0 1-.725-.526zm-54.088-1.958a.76.76 0 1 1 .6-1.401c.387.166.566.614.401 1-.124.289-.405.463-.701.463a.76.76 0 0 1-.299-.062zm60.633-.428a.76.76 0 0 1 .399-1c.387-.165.835.014 1.001.4s-.015.835-.401 1.001c-.098.042-.199.061-.299.061a.76.76 0 0 1-.7-.462zm-66.973-2.625c-.369-.2-.508-.662-.309-1.032a.76.76 0 0 1 1.033-.309c.37.198.508.661.31 1.031-.139.255-.401.401-.672.401a.77.77 0 0 1-.36-.091zm73.274-.341a.76.76 0 0 1 1.341-.723.76.76 0 0 1-.308 1.031.75.75 0 0 1-.362.092c-.27 0-.533-.145-.671-.4zm-79.313-3.27c-.351-.232-.448-.705-.217-1.057s.705-.446 1.056-.215.447.705.215 1.056a.76.76 0 0 1-1.055.216zm85.324-.251c-.232-.351-.135-.824.216-1.056a.76.76 0 1 1 .839 1.27.75.75 0 0 1-.419.127c-.246 0-.489-.12-.636-.341zm-91.015-3.886c-.329-.263-.384-.742-.121-1.071a.76.76 0 0 1 1.191.951.76.76 0 0 1-1.069.12zm96.687-.16a.76.76 0 1 1 1.191-.95.76.76 0 0 1-.12 1.07.75.75 0 0 1-.475.166.76.76 0 0 1-.596-.286zM50.505 161.41a.76.76 0 1 1 1.051-1.101.76.76 0 0 1-.526 1.313.76.76 0 0 1-.525-.212zm107.276-.066c-.291-.304-.279-.786.024-1.078h.001a.76.76 0 1 1 1.053 1.101.76.76 0 0 1-1.078-.023zm-112.142-5.015c-.277-.316-.245-.798.07-1.075s.798-.244 1.076.072h-.001a.76.76 0 0 1-.07 1.075c-.145.126-.324.189-.502.189-.212-.001-.423-.089-.573-.261zm117.007.025a.76.76 0 0 1-.073-1.075c.277-.316.759-.349 1.076-.072s.349.759.072 1.075c-.152.172-.362.261-.575.261a.76.76 0 0 1-.5-.189zm-121.4-5.519a.76.76 0 0 1 .167-1.065c.339-.248.816-.172 1.064.167s.172.816-.167 1.065c-.136.098-.292.146-.448.146a.76.76 0 0 1-.617-.313zm125.8.116c-.34-.248-.415-.724-.169-1.065s.725-.415 1.065-.167a.76.76 0 0 1-.448 1.378c-.156 0-.312-.048-.448-.146zm-129.685-5.982a.76.76 0 1 1 1.307-.783c.217.362.099.829-.261 1.046-.123.073-.259.108-.392.108a.76.76 0 0 1-.654-.371zm133.586.207c-.361-.217-.478-.684-.263-1.045a.76.76 0 0 1 1.045-.263c.362.216.479.685.264 1.045-.144.239-.396.371-.656.371a.76.76 0 0 1-.39-.108zM34.017 138.78a.76.76 0 0 1 1.373-.662c.183.379.025.833-.354 1.018a.77.77 0 0 1-.332.075c-.283 0-.555-.159-.687-.431zm140.295.294c-.378-.183-.538-.638-.355-1.017s.639-.538 1.018-.355a.76.76 0 0 1 .355 1.017c-.132.272-.404.431-.687.431a.77.77 0 0 1-.331-.076zm-143.066-6.757c-.149-.394.051-.833.444-.982s.833.051.982.445a.76.76 0 0 1-.445.981.74.74 0 0 1-.268.05c-.308 0-.598-.19-.713-.494zm145.872.376a.76.76 0 0 1-.447-.98c.149-.395.587-.593.982-.446s.593.587.445.981c-.115.306-.405.495-.714.495a.73.73 0 0 1-.266-.05zm-148.05-7.066a.76.76 0 1 1 1.469-.405c.111.405-.127.824-.531.936a.72.72 0 0 1-.204.028.76.76 0 0 1-.734-.559zm150.264.462c-.404-.112-.644-.531-.531-.938a.76.76 0 1 1 1.469.406c-.094.338-.401.56-.735.56a.84.84 0 0 1-.203-.028zm-151.829-7.32a.76.76 0 1 1 1.498-.272.76.76 0 0 1-.612.886c-.047.008-.093.012-.137.012a.76.76 0 0 1-.748-.626zm153.441.542a.76.76 0 0 1 .27-1.499.76.76 0 0 1 .614.884c-.067.368-.387.627-.748.627a.78.78 0 0 1-.136-.012zM26.56 111.798c-.037-.42.272-.789.691-.827a.76.76 0 0 1 .136 1.518c-.022.002-.046.002-.068.002-.391 0-.722-.298-.759-.693zm155.378.618a.76.76 0 0 1-.692-.826c.038-.419.407-.728.826-.692a.76.76 0 0 1 .691.827c-.035.395-.367.695-.757.695-.022 0-.046-.002-.068-.004zm-155.694-7.644a.76.76 0 1 1 1.523-.001.76.76 0 1 1-1.523.001zm155.307-.073l.003-.071a.59.59 0 0 1-.004-.072c0-.421.339-.762.761-.764s.762.34.763.76a.63.63 0 0 1-.004.075l.004.072a.76.76 0 1 1-1.523 0zM27.239 98.571c-.419-.038-.729-.407-.692-.825s.407-.73.827-.692a.76.76 0 0 1 .692.825c-.035.396-.368.695-.759.695a1.06 1.06 0 0 1-.068-.003zm153.994-.906a.76.76 0 1 1 1.517-.138.76.76 0 0 1-.689.828c-.024.003-.048.003-.07.003a.76.76 0 0 1-.758-.692zM28.092 91.657a.76.76 0 1 1 .269-1.501.76.76 0 0 1 .615.884.76.76 0 0 1-.75.628c-.044 0-.089-.004-.134-.012zm152.211-.828c-.075-.414.2-.81.613-.886a.76.76 0 1 1 .273 1.499.84.84 0 0 1-.137.012c-.361 0-.681-.258-.749-.626zm-150.74-5.983a.76.76 0 0 1 .402-1.469.76.76 0 0 1 .533.936.76.76 0 0 1-.734.56.72.72 0 0 1-.201-.027zm149.201-.741a.76.76 0 1 1 1.468-.406c.112.405-.126.825-.53.938-.07.018-.137.027-.205.027a.76.76 0 0 1-.733-.559zM31.64 78.198c-.393-.148-.593-.586-.447-.981a.76.76 0 0 1 1.427.534c-.115.306-.405.495-.713.495-.089 0-.179-.016-.268-.048zm144.981-.648c-.149-.393.05-.833.443-.982a.76.76 0 1 1 .538 1.426.77.77 0 0 1-.269.048.76.76 0 0 1-.712-.492zM34.313 71.761c-.379-.183-.538-.637-.357-1.017s.639-.538 1.017-.357.538.639.357 1.017c-.132.273-.404.432-.688.432a.76.76 0 0 1-.329-.076zm139.585-.546a.76.76 0 0 1 1.371-.665c.183.379.025.835-.354 1.019-.107.051-.219.076-.331.076a.76.76 0 0 1-.686-.43zM37.552 65.591a.76.76 0 1 1 .782-1.308c.361.216.478.683.263 1.045a.76.76 0 0 1-1.045.264zm133.062-.441a.76.76 0 0 1 1.306-.785.76.76 0 0 1-.261 1.045c-.123.074-.258.11-.392.11a.76.76 0 0 1-.653-.37zM41.333 59.737c-.34-.247-.415-.724-.168-1.065s.723-.415 1.064-.169a.76.76 0 0 1-.449 1.379c-.154 0-.311-.048-.447-.146zm125.466-.334c-.248-.34-.174-.816.166-1.066a.76.76 0 0 1 1.064.167c.248.34.174.816-.165 1.065a.76.76 0 0 1-1.065-.166zM45.622 54.245a.76.76 0 1 1 1.002-1.148.76.76 0 0 1-.5 1.335c-.178 0-.357-.061-.501-.187zm116.863-.227c-.276-.316-.245-.798.071-1.075a.76.76 0 1 1 1.004 1.146.75.75 0 0 1-.501.188c-.212 0-.422-.088-.574-.259zM50.384 49.157a.76.76 0 1 1 1.1-1.054c.291.303.281.786-.022 1.077-.148.141-.338.212-.528.212a.76.76 0 0 1-.55-.235zm107.326-.119a.76.76 0 0 1-.027-1.076c.29-.306.773-.316 1.078-.026a.76.76 0 0 1 .024 1.077c-.148.157-.35.235-.551.235-.188 0-.377-.069-.524-.21zM55.579 44.514a.76.76 0 1 1 1.19-.952c.263.328.209.807-.119 1.071a.76.76 0 0 1-1.071-.119zm96.929-.009c-.329-.263-.384-.742-.122-1.071s.742-.384 1.071-.121.383.742.122 1.071a.76.76 0 0 1-1.071.121zm-91.341-4.152a.76.76 0 0 1 .214-1.056c.35-.232.823-.136 1.055.214a.76.76 0 0 1-.214 1.055c-.129.086-.276.128-.419.128a.76.76 0 0 1-.636-.341zm85.755.099c-.351-.231-.448-.704-.217-1.055s.704-.448 1.056-.217a.76.76 0 0 1-.42 1.399.76.76 0 0 1-.419-.127zM67.104 36.71c-.2-.371-.061-.833.308-1.033a.76.76 0 1 1 .725 1.34.75.75 0 0 1-.362.091.76.76 0 0 1-.671-.398zm73.893.208c-.371-.199-.509-.661-.311-1.032s.661-.51 1.032-.311a.76.76 0 0 1 .311 1.032c-.137.256-.401.402-.672.402a.75.75 0 0 1-.36-.091zm-67.653-3.304a.76.76 0 0 1 1.4-.601.76.76 0 0 1-.7 1.062.76.76 0 0 1-.7-.461zm61.434.316a.76.76 0 0 1 .597-1.401.76.76 0 0 1-.299 1.463c-.1 0-.201-.019-.298-.061zm-54.942-2.837a.76.76 0 1 1 1.448-.473.76.76 0 0 1-.487.961c-.078.025-.158.038-.236.038-.321 0-.619-.205-.725-.526zm48.477.421a.76.76 0 1 1 .469-1.45c.4.129.621.559.491.96-.104.321-.403.528-.725.528a.74.74 0 0 1-.235-.038zm-41.781-2.345c-.094-.41.163-.819.573-.913a.76.76 0 0 1 .34 1.486.77.77 0 0 1-.171.02c-.348 0-.661-.24-.742-.593zm35.129.525a.76.76 0 1 1 .335-1.486.76.76 0 0 1 .576.91.76.76 0 0 1-.743.594.72.72 0 0 1-.168-.018zm-28.287-1.837a.76.76 0 1 1 1.51-.205c.056.416-.236.8-.653.858-.034.004-.069.007-.103.007-.375 0-.703-.279-.754-.66zm21.497.623a.76.76 0 1 1 .201-1.51c.417.055.709.438.655.856-.051.383-.378.662-.755.662a.7.7 0 0 1-.101-.008zm-14.567-1.318c-.019-.419.306-.776.726-.795s.777.307.796.726-.306.777-.726.797h-.034c-.405 0-.744-.319-.762-.727zm7.696.717a.76.76 0 0 1 .065-1.521.76.76 0 0 1 .728.793.76.76 0 0 1-.76.73l-.033-.001z"/><path d="M102.281 189.005c.008-.36.305-.646.666-.64s.646.306.64.666-.306.647-.666.64-.647-.305-.64-.666zm7.062-.095c-.022-.359.251-.67.611-.692s.67.25.693.611-.251.67-.612.692c-.013.002-.027.002-.04.002-.342-.001-.63-.267-.652-.613zm-13.524.324c-.358-.037-.619-.357-.583-.716s.358-.62.717-.582a.65.65 0 0 1 .582.715c-.035.337-.319.587-.649.587-.022 0-.044-.002-.068-.004zm20.553-1.003c-.052-.357.195-.688.551-.74a.65.65 0 1 1 .189 1.291.61.61 0 0 1-.095.008c-.319 0-.598-.234-.645-.559zm-27.595-.024c-.354-.066-.586-.409-.52-.762s.409-.588.763-.521.588.408.52.764a.65.65 0 0 1-.763.519zm34.543-1.24c-.083-.352.136-.703.487-.785a.65.65 0 0 1 .784.487c.082.351-.136.703-.488.785a.68.68 0 0 1-.148.017c-.297 0-.565-.204-.635-.504zm-41.474-.375c-.348-.097-.551-.456-.455-.803s.457-.551.805-.455.551.457.454.803c-.081.29-.344.48-.629.48a.63.63 0 0 1-.175-.025zm48.29-1.471c-.111-.343.077-.712.419-.822a.65.65 0 0 1 .403 1.241.61.61 0 0 1-.201.033c-.275 0-.531-.176-.621-.452zm-55.06-.723a.65.65 0 0 1-.385-.839c.125-.338.501-.51.84-.385s.511.502.385.84c-.098.263-.347.426-.612.426-.076 0-.153-.013-.227-.042zm61.693-1.688a.65.65 0 0 1 .348-.855c.332-.14.715.016.856.349s-.017.714-.349.855a.66.66 0 0 1-.253.051.65.65 0 0 1-.602-.4zm-68.259-1.069c-.325-.154-.466-.544-.312-.87a.65.65 0 0 1 .869-.312c.326.153.466.542.313.868a.65.65 0 0 1-.591.375.66.66 0 0 1-.278-.061zm74.667-1.893a.65.65 0 0 1 .274-.881c.32-.167.715-.045.882.276s.044.714-.276.881c-.097.051-.2.074-.302.074a.65.65 0 0 1-.578-.35zM62.2 178.341c-.312-.182-.419-.58-.239-.892a.65.65 0 1 1 1.131.653.65.65 0 0 1-.566.326c-.111 0-.223-.029-.326-.087zm87.114-2.082c-.193-.304-.103-.708.201-.901s.708-.105.901.2.105.708-.2.901a.66.66 0 0 1-.35.103.65.65 0 0 1-.552-.303zm-93.124-1.736c-.295-.205-.368-.612-.163-.908s.614-.37.909-.164.37.613.163.909a.65.65 0 0 1-.537.281c-.128 0-.258-.038-.372-.118zm98.95-2.255c-.218-.287-.162-.697.124-.916s.697-.161.915.126.162.696-.124.914a.65.65 0 0 1-.915-.124zm-104.619-2.049c-.278-.23-.316-.641-.087-.92s.642-.317.921-.086a.65.65 0 0 1-.418 1.156c-.146 0-.294-.05-.415-.15zm110.092-2.415a.65.65 0 0 1 .048-.922c.268-.241.681-.219.922.048a.65.65 0 0 1-.048.922c-.124.113-.281.169-.436.169a.65.65 0 0 1-.486-.217zm-115.382-2.347a.65.65 0 1 1 .913-.932.65.65 0 0 1-.457 1.119.64.64 0 0 1-.456-.187zm120.465-2.557a.65.65 0 1 1 .894-.951.65.65 0 0 1-.446 1.129.65.65 0 0 1-.448-.178zm-125.342-2.626c-.236-.273-.206-.686.067-.921s.684-.206.921.067.206.684-.067.921a.66.66 0 0 1-.427.159c-.183 0-.364-.077-.494-.226zm130-2.684a.65.65 0 1 1 .813-1.022c.282.224.33.634.105.918a.65.65 0 0 1-.512.246c-.142 0-.286-.047-.406-.142zm-134.427-2.889a.65.65 0 0 1 .142-.911c.291-.213.7-.149.913.142s.148.701-.144.913a.65.65 0 0 1-.384.125c-.201 0-.4-.092-.527-.269zm138.628-2.79c-.3-.2-.381-.605-.181-.906s.605-.381.905-.181.381.605.181.905a.65.65 0 0 1-.905.182zm-142.576-3.13c-.187-.308-.089-.71.219-.897a.65.65 0 0 1 .897.22c.187.308.089.709-.219.897a.65.65 0 0 1-.897-.22zm146.288-2.882c-.316-.174-.431-.571-.257-.887s.57-.431.887-.257.431.571.257.887a.65.65 0 0 1-.887.257zm-149.725-3.347c-.161-.322-.029-.714.294-.875s.714-.03.875.293.03.715-.293.876a.66.66 0 0 1-.291.068c-.239 0-.47-.132-.585-.362zm152.919-2.955c-.329-.147-.476-.533-.33-.862s.533-.478.862-.331.478.533.331.862c-.109.243-.347.388-.597.388-.089 0-.179-.018-.266-.057zm-155.821-3.54c-.133-.334.031-.714.366-.847s.716.03.849.366-.031.714-.366.847c-.08.031-.161.047-.242.047-.26 0-.505-.157-.607-.413zm158.475-3.01c-.341-.119-.521-.491-.402-.832s.491-.519.832-.402.52.491.401.832c-.093.269-.346.439-.615.439a.65.65 0 0 1-.216-.037zm-160.821-3.709c-.105-.345.091-.709.436-.814a.65.65 0 1 1 .378 1.25.62.62 0 0 1-.188.029c-.281 0-.54-.183-.625-.465zm162.912-3.036c-.35-.09-.56-.446-.471-.796s.445-.56.795-.47.559.445.47.794c-.076.295-.341.491-.632.491a.69.69 0 0 1-.162-.019zm-164.683-3.857c-.074-.352.15-.698.503-.774s.7.15.774.503-.15.7-.503.774c-.046.011-.091.014-.136.014-.302 0-.573-.21-.639-.517zm166.197-3.041c-.356-.061-.596-.396-.536-.753s.397-.595.752-.535.596.396.536.752c-.054.319-.329.545-.643.545a.67.67 0 0 1-.109-.009zm-167.381-3.976a.65.65 0 1 1 1.296-.163c.044.358-.209.684-.567.73-.027.004-.055.005-.082.005-.324 0-.605-.241-.647-.572zm168.312-3.024c-.359-.03-.627-.345-.597-.704a.65.65 0 1 1 1.301.107c-.028.341-.314.599-.649.599-.019 0-.037-.001-.055-.002zm-168.906-4.066a.65.65 0 0 1 .624-.679c.361-.016.665.264.681.624s-.265.665-.626.681h-.027a.65.65 0 0 1-.652-.626zm168.598-3.64c0-.026.001-.052.004-.076a.71.71 0 0 1-.004-.079.65.65 0 0 1 .651-.654c.361-.002.654.291.655.652a.7.7 0 0 1-.005.079c.004.025.005.052.005.078 0 .361-.293.654-.653.654s-.653-.293-.653-.654zm-167.979-2.797c-.36-.016-.641-.319-.627-.679s.319-.641.679-.627.641.319.627.679c-.014.351-.304.627-.653.627h-.026zm167.677-4.361a.65.65 0 0 1 .595-.705c.36-.03.675.236.706.596s-.237.675-.596.705c-.018.002-.038.002-.056.002a.65.65 0 0 1-.649-.598zM20.886 94.859c-.358-.044-.612-.371-.568-.729s.371-.613.729-.568a.65.65 0 0 1 .567.729.65.65 0 0 1-.646.572c-.027 0-.053-.001-.081-.004zm166.272-4.269c-.06-.355.179-.692.534-.752a.65.65 0 0 1 .754.534c.06.355-.179.692-.534.752a.66.66 0 0 1-.111.01c-.312 0-.588-.226-.643-.545zM21.994 87.884c-.353-.075-.578-.421-.504-.773s.421-.578.773-.504.58.42.506.773c-.065.308-.337.519-.639.519-.044 0-.09-.004-.136-.014zm163.704-4.147h-.002c-.09-.349.121-.705.471-.795s.705.12.795.47-.12.705-.469.795a.65.65 0 0 1-.795-.47zm-162.012-2.71c-.345-.103-.541-.468-.438-.814s.468-.541.814-.437.541.469.438.814c-.085.283-.345.465-.625.465a.67.67 0 0 1-.188-.027zm159.977-3.995c-.12-.34.06-.712.4-.832s.713.06.832.401-.061.713-.4.832c-.072.025-.145.037-.216.037a.65.65 0 0 1-.616-.437zM25.949 74.333c-.335-.133-.5-.512-.367-.848a.65.65 0 0 1 .848-.367c.334.132.499.512.367.846-.102.257-.348.414-.607.414a.65.65 0 0 1-.24-.046zm155.122-3.806c-.148-.329 0-.716.329-.863s.716 0 .863.329 0 .716-.329.863c-.087.039-.177.058-.266.058-.25 0-.489-.145-.597-.387zM28.77 67.855a.65.65 0 0 1 .58-1.17.65.65 0 0 1 .295.875c-.114.23-.346.363-.585.363a.66.66 0 0 1-.29-.068zm149.172-3.594c-.175-.315-.06-.712.254-.887s.713-.06.889.256.06.712-.256.887c-.1.055-.208.082-.315.082-.23 0-.453-.123-.572-.338zM32.125 61.636a.65.65 0 0 1-.221-.896c.187-.308.588-.407.897-.221s.406.588.219.897c-.123.202-.338.315-.559.315a.65.65 0 0 1-.337-.095zm142.172-3.358h.001c-.201-.3-.12-.705.18-.906s.706-.119.905.18.12.705-.18.906a.65.65 0 0 1-.362.11c-.211 0-.417-.102-.544-.29zM35.988 55.721a.65.65 0 1 1 .767-1.056.65.65 0 0 1-.384 1.182.64.64 0 0 1-.383-.125zm134.178-3.103a.65.65 0 1 1 1.021-.814c.225.282.178.694-.104.918-.12.095-.264.142-.406.142a.65.65 0 0 1-.511-.247zM40.331 50.149c-.273-.235-.303-.648-.068-.921a.65.65 0 0 1 .921-.068c.273.235.304.648.068.921-.128.15-.311.226-.494.226a.65.65 0 0 1-.427-.158zm125.246-2.828c-.248-.263-.235-.676.027-.923a.65.65 0 0 1 .922.027c.248.263.236.677-.027.923-.125.119-.286.178-.447.178-.173 0-.347-.069-.475-.205zM45.122 44.96c-.252-.257-.248-.671.009-.923a.65.65 0 0 1 .923.009c.252.257.248.67-.009.923-.127.124-.292.187-.457.187a.65.65 0 0 1-.466-.196zm115.44-2.535c-.269-.24-.29-.653-.05-.922s.655-.29.922-.05.292.654.05.923a.65.65 0 0 1-.922.048zM50.328 40.186c-.23-.277-.192-.69.086-.919s.688-.192.919.085.192.69-.086.919c-.122.102-.269.151-.416.151-.187 0-.374-.081-.503-.236zm104.829-2.224a.65.65 0 1 1 .788-1.041c.288.218.345.627.127.915-.129.169-.324.259-.521.259-.137 0-.276-.044-.394-.133zm-99.245-2.099c-.206-.297-.133-.703.162-.909a.65.65 0 0 1 .747 1.071.65.65 0 0 1-.372.117c-.206 0-.41-.098-.536-.279zm93.487-1.899c-.305-.192-.396-.596-.203-.901s.597-.394.901-.201.396.596.203.901c-.124.196-.336.303-.553.303-.118 0-.24-.033-.348-.102zm-87.562-1.942c-.182-.312-.074-.712.236-.893s.712-.074.893.238.075.712-.238.892c-.103.06-.215.089-.326.089-.226 0-.445-.118-.565-.325zm81.488-1.559h.001c-.32-.167-.444-.562-.277-.88a.65.65 0 1 1 1.157.603c-.116.223-.344.351-.58.351a.64.64 0 0 1-.301-.074zm-75.263-1.772c-.154-.326-.016-.716.311-.87s.716-.014.87.311.015.715-.312.87c-.09.042-.184.063-.278.063-.244 0-.479-.139-.59-.373zm68.917-1.208c-.332-.139-.488-.521-.35-.854s.522-.488.855-.35.489.522.351.855c-.106.249-.348.4-.604.4-.084 0-.17-.016-.252-.051zm-62.437-1.589c-.127-.337.046-.713.384-.84s.713.046.84.383-.046.714-.383.841a.67.67 0 0 1-.229.042c-.265 0-.515-.163-.613-.426zm55.861-.845c-.342-.111-.531-.479-.42-.823s.479-.53.823-.421.531.479.42.823c-.09.277-.346.452-.621.452-.067 0-.135-.009-.202-.031zm-49.164-1.396c-.097-.348.106-.708.453-.806s.708.106.804.453-.106.708-.453.805c-.059.017-.117.025-.176.025-.285 0-.547-.188-.628-.477zm42.413-.474c-.352-.082-.571-.432-.489-.784a.65.65 0 0 1 .784-.488c.351.081.569.432.488.784-.07.302-.338.505-.636.505a.65.65 0 0 1-.147-.017zM88.1 21.984a.65.65 0 0 1 1.282-.245c.068.354-.165.696-.519.764-.042.008-.082.012-.123.012-.308 0-.581-.218-.641-.53zm28.665-.1a.65.65 0 0 1-.552-.739c.052-.358.382-.605.74-.554s.603.384.553.74c-.047.325-.327.559-.647.559-.03 0-.062-.001-.094-.007zm-21.687-.986c-.038-.359.222-.68.581-.718s.679.222.717.581a.65.65 0 0 1-.581.717l-.069.004c-.329 0-.613-.249-.648-.584zm14.717.272a.65.65 0 0 1-.612-.691c.022-.36.332-.635.691-.613s.634.332.612.691a.65.65 0 0 1-.65.614c-.013 0-.028 0-.041-.001zm-7.674-.773c-.008-.36.278-.659.639-.667s.659.278.667.639-.278.659-.638.667c-.369 0-.66-.282-.668-.639z"/><path d="M104.159 195.72c0-.301.244-.544.545-.544s.544.243.544.544-.244.544-.544.544-.545-.244-.545-.544zm-6.636.27c-.3-.023-.525-.285-.501-.584s.285-.524.584-.501.525.285.501.585c-.022.285-.261.501-.542.501-.014 0-.029 0-.042-.001zm13.779-.507c-.024-.3.201-.561.5-.585s.562.2.585.5-.201.562-.5.585c-.015.002-.029.002-.043.002-.281 0-.52-.217-.542-.502zm-20.918-.325c-.296-.047-.5-.325-.453-.622s.324-.5.622-.453.5.324.453.622c-.042.268-.273.46-.537.46l-.085-.007zm28.018-.468c-.047-.296.157-.574.453-.621s.576.155.623.452-.157.575-.453.622c-.029.004-.058.007-.086.007-.263 0-.494-.192-.537-.46zm-35.07-.923c-.292-.069-.473-.363-.404-.655s.363-.473.656-.404.473.363.404.656c-.06.25-.283.418-.529.418a.5.5 0 0 1-.127-.015zm42.087-.424c-.069-.292.11-.585.402-.656s.587.11.657.402-.111.587-.403.657a.61.61 0 0 1-.127.014c-.246.001-.469-.167-.529-.417zm-49.008-1.519c-.286-.093-.443-.4-.35-.686s.4-.442.686-.35h-.001c.286.093.443.4.35.686-.075.23-.287.376-.517.376a.54.54 0 0 1-.167-.026zm55.897-.378c-.093-.286.064-.593.35-.685s.592.063.686.348-.064.593-.35.686c-.056.018-.113.027-.169.027-.228 0-.443-.146-.517-.376zm-62.648-2.109c-.278-.116-.41-.433-.295-.711s.434-.409.71-.294.41.432.295.71c-.088.209-.29.336-.503.336-.069 0-.14-.013-.208-.041zm69.36-.323c-.114-.279.018-.597.294-.712s.596.015.712.294-.017.595-.294.711a.55.55 0 0 1-.209.041c-.213 0-.415-.126-.503-.334zm-75.893-2.69c-.268-.135-.373-.463-.238-.731s.465-.375.733-.238.373.464.238.732c-.097.189-.287.297-.486.297-.084.001-.167-.019-.247-.06zm82.393-.267c-.135-.268-.03-.596.238-.733s.596-.03.731.238a.54.54 0 0 1-.236.731c-.08.041-.163.06-.247.06-.198 0-.389-.108-.486-.296zm-88.667-3.25c-.256-.156-.337-.491-.179-.748s.491-.335.748-.179.336.492.179.748c-.103.167-.282.26-.465.26-.097 0-.194-.026-.283-.081zm94.916-.21c-.157-.256-.077-.59.179-.748s.592-.077.749.179a.54.54 0 0 1-.463.829c-.183 0-.362-.093-.465-.26zM50.873 178.81c-.243-.176-.296-.516-.12-.759s.517-.298.76-.12h.001c.243.176.297.516.119.76a.54.54 0 0 1-.44.223c-.111 0-.223-.034-.32-.104zm106.856-.152a.54.54 0 0 1 .12-.76c.241-.177.582-.124.76.119s.123.584-.12.76a.54.54 0 0 1-.76-.119zm-112.502-4.3c-.229-.195-.256-.538-.06-.767s.538-.256.767-.06.256.538.06.767a.54.54 0 0 1-.414.19c-.124 0-.251-.043-.353-.13zm118.136-.094c-.196-.229-.169-.572.06-.767s.572-.168.766.06.169.573-.058.767a.55.55 0 0 1-.354.131c-.154 0-.306-.066-.414-.191zM39.946 169.48c-.212-.213-.213-.557 0-.77s.556-.213.769 0 .213.557.001.769a.54.54 0 0 1-.385.16c-.139 0-.278-.053-.385-.159zm128.692-.037c-.213-.213-.213-.557 0-.77s.557-.212.769 0 .213.557.001.77c-.107.106-.246.16-.385.16s-.278-.054-.385-.16zm-133.575-5.238c-.196-.228-.168-.572.06-.768s.571-.168.767.06.168.572-.06.767c-.102.088-.227.131-.353.131a.54.54 0 0 1-.414-.19zm138.459.02c-.229-.196-.256-.54-.06-.768s.538-.255.766-.06.256.539.06.768c-.107.125-.259.19-.414.19-.124.001-.25-.043-.352-.13zm-142.916-5.66c-.176-.242-.123-.583.12-.76s.582-.123.76.12.123.582-.119.76c-.098.07-.209.104-.32.104-.169 0-.334-.077-.441-.224zm147.377.076c-.243-.178-.296-.518-.119-.76s.517-.297.76-.12.297.517.119.76c-.106.146-.272.224-.44.224-.111 0-.223-.034-.32-.104zm-151.379-6.044c-.157-.256-.077-.592.179-.749s.591-.078.748.178.077.591-.179.748c-.089.055-.187.081-.283.081-.183 0-.362-.091-.465-.258zm155.392.126c-.256-.157-.337-.492-.179-.748s.493-.336.749-.179.335.492.179.748a.55.55 0 0 1-.465.26.54.54 0 0 1-.284-.081zm-158.911-6.39c-.137-.268-.031-.595.236-.733s.595-.031.733.237.03.595-.238.732c-.079.041-.163.061-.247.061-.198 0-.389-.109-.484-.297zm162.446.176c-.267-.137-.373-.465-.236-.732a.54.54 0 0 1 .731-.237c.268.136.374.464.238.732-.097.188-.287.296-.486.296a.54.54 0 0 1-.247-.059zm-165.463-6.697c-.115-.276.016-.595.294-.71s.596.016.71.294a.54.54 0 0 1-.502.752c-.213 0-.415-.125-.503-.336zm168.5.222c-.277-.115-.409-.433-.294-.71s.434-.41.711-.295.409.433.295.712c-.088.209-.29.335-.503.335-.069 0-.141-.013-.209-.042zm-170.992-6.957c-.093-.285.063-.592.349-.685s.593.063.686.349-.063.592-.349.685a.55.55 0 0 1-.169.028c-.23 0-.443-.147-.517-.377zm173.508.263c-.286-.093-.442-.401-.35-.686s.4-.442.686-.35.443.4.35.686c-.076.23-.288.376-.518.376-.055 0-.113-.009-.168-.026zm-175.462-7.18c-.07-.293.11-.587.402-.656s.585.11.656.401-.11.586-.402.657a.55.55 0 0 1-.127.014c-.246 0-.469-.167-.529-.416zm177.439.313c-.293-.07-.473-.364-.403-.657s.363-.472.656-.402.473.363.402.656c-.06.249-.282.418-.529.418a.61.61 0 0 1-.126-.015zm-178.84-7.363c-.047-.298.155-.576.452-.623s.576.156.623.454-.155.574-.453.621c-.029.005-.056.007-.085.007-.264-.001-.495-.191-.537-.459zm180.268.362c-.298-.047-.5-.325-.453-.623s.325-.499.622-.452.5.324.453.622c-.042.268-.274.46-.537.46l-.085-.007zm-181.112-7.5c-.023-.299.201-.562.5-.585s.562.201.585.5-.2.562-.5.585c-.014.002-.029.002-.043.002-.281-.001-.518-.216-.542-.502zm181.984.408c-.299-.023-.523-.284-.5-.585s.285-.523.585-.5.524.285.5.585c-.022.285-.261.502-.541.502-.015 0-.029 0-.044-.002zm-182.268-7.59c0-.3.243-.544.544-.544s.543.243.545.543-.243.545-.545.545-.543-.243-.544-.544zm182.043-.091c0-.031.002-.061.008-.09-.006-.029-.008-.059-.008-.09-.002-.301.243-.545.543-.545s.545.242.545.542c0 .032-.003.063-.007.092.004.03.007.06.007.091.001.301-.243.545-.544.545s-.544-.245-.544-.545zM13.865 98.193c-.299-.023-.524-.285-.502-.584s.285-.524.585-.501.524.285.5.584c-.021.286-.26.503-.542.503l-.042-.001zm180.983-.772c-.023-.299.2-.562.5-.586s.562.201.585.5-.2.562-.499.585l-.044.002c-.281 0-.52-.217-.542-.501zm-180.201-6.33c-.296-.047-.5-.325-.453-.622s.324-.5.622-.454.5.325.453.622c-.042.269-.273.461-.537.461-.027 0-.056-.003-.085-.007zm179.361-.722c-.047-.297.156-.576.452-.623s.576.155.623.452-.155.576-.452.623a.48.48 0 0 1-.086.007c-.262 0-.494-.191-.537-.458zM15.983 84.071c-.292-.069-.473-.363-.403-.656s.363-.473.656-.402.473.363.403.654c-.06.251-.283.419-.529.419-.042 0-.085-.005-.127-.016zm176.633-.667h-.001c-.07-.291.11-.585.402-.656s.587.108.657.401-.109.586-.402.657a.53.53 0 0 1-.128.014c-.246 0-.467-.167-.528-.416zM17.87 77.179c-.286-.093-.443-.4-.351-.686s.4-.443.686-.35.443.4.351.686c-.076.23-.288.376-.518.376a.52.52 0 0 1-.167-.026zm172.808-.608c-.092-.285.063-.593.349-.686s.593.063.686.349-.063.593-.348.686c-.056.018-.113.027-.169.027-.229 0-.443-.146-.518-.376zm-170.38-6.119c-.278-.115-.41-.434-.295-.712s.434-.41.712-.295.409.434.294.712c-.086.209-.288.336-.503.336-.069 0-.14-.013-.208-.041zm167.912-.533c-.116-.278.016-.597.292-.712s.596.016.712.293-.015.595-.292.712c-.069.029-.14.042-.211.042a.54.54 0 0 1-.501-.334zM23.249 63.938c-.268-.136-.373-.464-.238-.731s.465-.375.733-.238.373.464.238.731c-.097.188-.287.298-.486.296-.082 0-.167-.018-.247-.059zm161.974-.458c-.137-.267-.031-.595.235-.733s.596-.031.733.236.031.596-.235.733a.55.55 0 0 1-.248.06c-.197 0-.388-.108-.485-.297zM26.705 57.679c-.256-.157-.337-.492-.18-.748s.492-.337.748-.18.337.492.18.748a.54.54 0 0 1-.748.18zm155.033-.384h.001c-.158-.256-.078-.591.178-.75s.59-.077.748.179.078.59-.178.748a.54.54 0 0 1-.284.081c-.183 0-.362-.092-.465-.259zM30.64 51.71c-.243-.176-.296-.517-.12-.76s.517-.298.76-.12.298.517.12.76c-.106.146-.272.225-.44.225a.54.54 0 0 1-.32-.105zm147.138-.311c-.176-.243-.124-.582.119-.76s.584-.124.76.119.124.582-.118.76c-.098.071-.21.104-.321.104-.167 0-.333-.077-.44-.223zM35.03 46.069c-.229-.195-.256-.538-.061-.767s.539-.256.768-.061.256.539.06.768c-.107.125-.26.191-.414.191a.54.54 0 0 1-.353-.131zm138.339-.236c-.196-.229-.17-.572.059-.768s.572-.17.768.059.168.572-.06.768c-.102.087-.229.131-.354.131a.54.54 0 0 1-.413-.189zM39.846 40.789c-.212-.213-.213-.558 0-.769s.556-.214.769-.001.213.556.001.769c-.107.107-.247.16-.385.16s-.278-.053-.385-.159zm128.693-.165c-.213-.213-.214-.556-.001-.769s.556-.214.769-.001.213.556.001.769a.54.54 0 0 1-.385.159.54.54 0 0 1-.384-.158zM45.059 35.9c-.196-.229-.17-.572.059-.768s.572-.168.768.059.169.572-.06.768c-.102.087-.229.13-.354.13a.54.54 0 0 1-.413-.189zm118.255-.093c-.228-.195-.256-.538-.061-.767s.538-.256.768-.061a.54.54 0 0 1 .06.767.54.54 0 0 1-.414.192c-.124 0-.249-.043-.353-.131zM50.635 31.434c-.176-.243-.123-.584.12-.762s.583-.123.76.119.124.584-.119.761c-.098.07-.209.104-.321.104a.55.55 0 0 1-.44-.223zm107.096-.02c-.244-.176-.297-.517-.121-.76s.517-.298.76-.121.298.517.12.76a.54.54 0 0 1-.44.225c-.111 0-.223-.034-.319-.103zM56.544 27.417c-.157-.256-.077-.59.179-.748s.59-.078.748.178.078.592-.178.75c-.089.055-.188.081-.285.081-.183 0-.362-.093-.465-.26zm95.276.052c-.256-.157-.337-.491-.18-.747s.492-.337.748-.18.337.491.181.748c-.102.167-.281.26-.465.26-.097 0-.195-.026-.284-.081zm-89.071-3.591c-.137-.268-.031-.596.236-.733s.596-.031.731.236.031.596-.236.733a.54.54 0 0 1-.731-.236zm82.869.124c-.267-.137-.375-.465-.239-.733s.464-.375.732-.238.374.463.239.731c-.097.189-.288.298-.486.298a.55.55 0 0 1-.246-.058zm-76.408-3.164c-.115-.278.016-.597.294-.712s.596.016.712.293-.017.597-.294.712c-.068.029-.14.042-.209.042-.213 0-.415-.126-.503-.334zm69.95.195c-.278-.115-.41-.434-.296-.71s.433-.41.711-.295.409.432.296.71c-.088.209-.29.336-.504.336a.56.56 0 0 1-.207-.041zm-63.271-2.715c-.093-.286.063-.594.349-.687s.593.063.687.349-.064.593-.349.686a.55.55 0 0 1-.17.027c-.229 0-.442-.146-.517-.375zm56.598.264c-.286-.091-.443-.398-.352-.684s.4-.443.686-.351.443.4.35.686c-.074.23-.287.377-.517.377a.53.53 0 0 1-.167-.028zm-49.734-2.252c-.071-.293.11-.586.401-.657s.586.11.657.402-.11.587-.402.657a.52.52 0 0 1-.127.014c-.246 0-.469-.167-.529-.417zm42.893.338c-.292-.069-.473-.362-.404-.654s.364-.474.656-.404.473.362.404.654c-.06.251-.284.419-.529.419a.54.54 0 0 1-.127-.016zm-35.894-1.776c-.047-.298.155-.576.452-.623s.576.155.623.452-.155.576-.452.623c-.03.004-.059.007-.086.007-.264 0-.495-.191-.537-.458zm28.926.41c-.297-.047-.5-.325-.454-.622s.325-.5.622-.455.5.324.454.622c-.042.269-.274.461-.538.461-.027 0-.056-.003-.084-.007zM96.84 14.007c-.025-.3.2-.562.499-.586s.562.201.585.5-.2.562-.499.585l-.043.003c-.282 0-.52-.217-.542-.501zm14.782.478c-.301-.022-.526-.285-.502-.584s.283-.524.584-.502.524.285.5.584c-.021.286-.26.503-.541.503l-.041-.001zm-7.098-.264c-.301 0-.545-.243-.545-.543s.243-.544.543-.544.545.243.545.543-.243.545-.543.545z"/><path d="M101.121 202.776c-.24-.009-.428-.21-.42-.45s.21-.429.45-.421.429.211.42.451-.201.42-.434.42zm6.717-.423c-.009-.24.179-.443.42-.45s.441.179.45.419-.179.441-.419.45c-.25.001-.443-.184-.451-.419zm-13.865-.09c-.239-.026-.411-.24-.385-.479s.24-.412.479-.387a.44.44 0 0 1 .387.481c-.025.222-.213.388-.432.388-.016 0-.031 0-.048-.003zm20.983-.396c-.027-.239.146-.453.385-.479s.454.146.48.385-.147.455-.386.481l-.047.003c-.219 0-.409-.166-.432-.39zm-28.075-.634c-.236-.043-.393-.27-.35-.507s.27-.393.507-.35.393.27.35.507c-.038.21-.222.356-.428.356a.53.53 0 0 1-.078-.006zm35.139-.367c-.045-.237.112-.463.348-.507s.464.114.507.35-.112.464-.349.507a.43.43 0 0 1-.506-.35zm-42.136-1.182c-.232-.06-.372-.298-.312-.531s.298-.372.53-.312.372.299.312.532c-.051.196-.227.325-.421.325a.41.41 0 0 1-.11-.014zm49.107-.334c-.06-.233.078-.471.312-.531s.47.079.53.311-.078.47-.31.532c-.037.009-.075.014-.11.014a.44.44 0 0 1-.422-.326zm-55.973-1.724c-.229-.077-.35-.324-.272-.553s.324-.348.552-.271.349.325.272.552c-.063.182-.231.295-.413.295a.45.45 0 0 1-.14-.023zm62.815-.301c-.077-.227.044-.475.271-.552s.476.043.553.271-.043.475-.272.553c-.045.016-.094.024-.139.024-.182-.001-.352-.114-.413-.296zm-69.518-2.259c-.221-.094-.324-.35-.23-.572s.349-.324.571-.23.324.35.23.571c-.07.166-.231.265-.401.265-.056 0-.114-.011-.17-.034zm76.185-.26c-.094-.221.009-.477.229-.571s.477.009.571.23-.008.477-.23.571c-.054.023-.113.035-.169.035-.17 0-.331-.099-.401-.265zm-82.68-2.787c-.214-.11-.299-.372-.189-.586s.373-.298.587-.188.299.373.188.586c-.077.15-.229.236-.387.236-.067 0-.136-.015-.199-.048zm89.146-.215c-.11-.215-.027-.477.188-.587s.475-.026.586.188.026.476-.188.587c-.064.032-.132.048-.198.048-.158 0-.311-.086-.388-.236zm-95.4-3.298c-.205-.125-.269-.393-.144-.598s.393-.269.598-.144.27.393.144.598a.43.43 0 0 1-.598.144zm101.631-.171c-.126-.205-.062-.473.144-.598s.473-.061.599.144.061.474-.145.599c-.071.043-.149.064-.226.064-.147 0-.29-.074-.372-.209zm-107.61-3.787c-.195-.14-.24-.413-.101-.608s.413-.241.607-.1.24.411.101.607c-.085.119-.218.182-.354.182a.44.44 0 0 1-.253-.081zm113.573-.127c-.142-.196-.096-.468.1-.607s.466-.096.607.099.096.467-.1.607a.43.43 0 0 1-.254.082c-.135 0-.268-.063-.353-.181zm-119.247-4.258c-.184-.154-.209-.428-.055-.612s.427-.21.612-.056.21.428.056.613a.43.43 0 0 1-.334.156c-.099 0-.197-.033-.279-.101zm124.909-.082c-.154-.184-.129-.459.056-.612s.459-.129.613.055.129.459-.055.613c-.082.068-.18.101-.279.101-.124 0-.249-.053-.335-.157zm-130.248-4.7c-.174-.167-.179-.443-.012-.616s.443-.178.615-.011.179.441.012.615c-.085.089-.2.133-.313.133s-.217-.04-.302-.121zm135.582-.039c-.166-.173-.162-.449.011-.615s.45-.162.616.01.162.449-.011.617c-.085.081-.193.121-.303.121s-.227-.044-.313-.133zm-140.56-5.118c-.161-.179-.145-.455.034-.615s.453-.147.614.032.146.455-.033.616c-.084.074-.187.111-.291.111-.119 0-.238-.049-.324-.144zm145.537.002c-.179-.16-.193-.434-.033-.613s.435-.195.614-.034.195.436.034.615c-.086.095-.205.145-.324.145-.104 0-.208-.038-.291-.113zm-150.127-5.507c-.148-.189-.112-.463.077-.61s.464-.112.611.077.112.464-.078.612a.43.43 0 0 1-.265.091c-.131 0-.259-.059-.345-.17zm154.72.044c-.189-.147-.225-.42-.077-.611s.42-.224.61-.077.226.421.078.61c-.086.111-.214.17-.344.17-.093 0-.187-.03-.267-.092zm-158.897-5.866c-.132-.2-.078-.47.123-.603s.47-.077.604.123.078.47-.121.603a.43.43 0 0 1-.24.073.44.44 0 0 1-.365-.196zm163.083.082c-.201-.133-.256-.402-.123-.603s.403-.254.603-.121.255.402.123.603a.44.44 0 0 1-.364.195.43.43 0 0 1-.239-.074zm-166.824-6.19c-.117-.21-.044-.475.166-.593s.474-.044.593.165.043.475-.166.593c-.068.038-.141.056-.213.056-.153 0-.3-.08-.38-.221zm170.576.116c-.209-.117-.284-.384-.166-.593s.382-.283.593-.166.283.383.166.593c-.08.143-.228.222-.38.222-.072 0-.146-.018-.213-.056zm-173.86-6.481c-.102-.218-.008-.477.209-.58s.477-.008.58.209.009.477-.209.58a.45.45 0 0 1-.185.04c-.163 0-.32-.091-.394-.249zm177.159.147c-.219-.101-.311-.361-.209-.578s.361-.312.578-.209.311.362.209.578c-.073.158-.231.251-.394.251a.42.42 0 0 1-.184-.042zm-179.967-6.733c-.086-.225.026-.477.251-.563s.477.026.563.251-.026.475-.251.563a.45.45 0 0 1-.155.028.44.44 0 0 1-.407-.279zm182.793.173c-.225-.086-.337-.337-.252-.561s.338-.337.563-.252.336.338.25.563c-.067.173-.231.279-.406.279a.42.42 0 0 1-.155-.029zm-185.111-6.955c-.07-.231.06-.474.29-.543s.474.061.543.291-.061.474-.291.543c-.042.012-.085.019-.126.019-.188-.001-.36-.122-.417-.31zm187.446.204c-.23-.07-.361-.313-.292-.542s.312-.362.542-.293.361.312.292.542c-.057.19-.229.311-.417.311-.04 0-.083-.007-.125-.018zm-189.26-7.137c-.052-.236.095-.468.329-.52s.468.095.52.33-.095.468-.33.519c-.031.008-.063.01-.094.01-.2 0-.38-.137-.424-.339zm191.091.24c-.235-.052-.383-.285-.332-.519h.001c.051-.235.283-.382.519-.331s.382.284.33.519c-.044.203-.225.341-.424.341a.37.37 0 0 1-.094-.01zM7.563 119.074c-.034-.237.129-.458.368-.494s.458.13.494.367-.129.46-.368.494a.33.33 0 0 1-.063.005c-.213 0-.398-.155-.431-.372zm193.711.277c-.239-.035-.404-.256-.369-.494s.256-.402.494-.368.402.256.368.494c-.033.217-.218.373-.431.373a.43.43 0 0 1-.062-.005zM6.782 111.952c-.018-.241.162-.45.402-.467s.448.164.466.403-.163.448-.402.466l-.033.001c-.226 0-.417-.175-.434-.403zm195.295.31c-.241-.018-.421-.226-.404-.466s.226-.42.467-.402.419.226.402.465c-.017.23-.208.403-.434.403h-.031zM6.519 104.788c-.001-.24.194-.434.435-.434s.435.193.435.434-.194.435-.435.435-.435-.194-.435-.435zm195.409-.09a.41.41 0 0 1 .011-.094.41.41 0 0 1-.011-.094c0-.24.194-.436.435-.436s.435.195.436.435c0 .032-.004.064-.01.094.006.031.01.062.01.095 0 .24-.194.435-.435.435s-.436-.195-.436-.435zM7.173 98.092c-.24-.017-.421-.226-.403-.465s.225-.42.465-.404.42.225.403.465c-.017.23-.208.405-.434.405-.011 0-.021-.001-.031-.001zm194.486-.682c-.017-.24.163-.449.402-.466s.449.162.466.402-.162.448-.401.466h-.032c-.226 0-.418-.174-.435-.402zM7.905 90.996c-.238-.035-.402-.256-.368-.494s.256-.402.494-.368.402.255.368.494c-.031.217-.218.372-.43.372a.55.55 0 0 1-.064-.004zm192.973-.645c-.035-.238.129-.458.367-.494s.458.129.493.367-.129.458-.366.494c-.021.004-.042.005-.064.005-.212 0-.399-.155-.43-.372zM9.155 83.971c-.235-.052-.383-.285-.332-.52s.285-.383.52-.331.383.283.33.519c-.044.204-.225.342-.424.342-.031 0-.062-.004-.094-.01zm190.427-.603c-.052-.235.096-.468.329-.52s.468.095.521.329-.095.467-.33.52a.4.4 0 0 1-.095.011c-.2 0-.379-.137-.425-.34zM10.917 77.056c-.23-.068-.36-.311-.293-.542s.312-.36.542-.291.362.311.293.542c-.056.188-.23.31-.417.31-.042 0-.084-.005-.125-.018zm186.861-.559c-.07-.23.06-.473.291-.542s.473.06.542.29-.06.474-.29.543c-.042.013-.085.018-.127.018-.186 0-.359-.12-.416-.31zM13.183 70.29c-.225-.085-.337-.337-.252-.562s.338-.337.563-.252.337.338.251.563c-.065.174-.231.279-.406.279a.42.42 0 0 1-.156-.029zm182.29-.511c-.086-.225.026-.477.25-.563s.476.026.562.249-.025.477-.249.563a.45.45 0 0 1-.157.03c-.175 0-.34-.107-.406-.279zM15.944 63.702c-.218-.102-.312-.362-.21-.578s.362-.312.579-.21.312.362.21.578c-.074.158-.231.251-.394.251a.43.43 0 0 1-.184-.04zm176.739-.448c-.102-.218-.009-.477.208-.58s.476-.009.58.208.009.477-.208.58a.43.43 0 0 1-.185.042c-.164 0-.32-.093-.395-.249zM19.178 57.336c-.21-.117-.285-.383-.166-.593s.383-.283.592-.166.285.383.167.591c-.08.142-.229.223-.38.223-.072 0-.145-.018-.213-.056zm170.244-.387c-.119-.209-.044-.475.165-.593s.475-.044.593.164.045.475-.165.593c-.068.039-.141.056-.213.056-.153 0-.3-.08-.38-.221zM22.871 51.225c-.2-.133-.256-.404-.123-.603s.402-.256.604-.124.256.404.123.603c-.084.127-.222.196-.363.196a.44.44 0 0 1-.241-.072zm162.838-.328c-.133-.2-.079-.47.121-.603s.47-.078.604.121.079.47-.122.603a.43.43 0 0 1-.24.073c-.141 0-.28-.068-.363-.195zM26.997 45.399c-.189-.146-.225-.42-.078-.61s.421-.226.611-.08.225.42.078.611c-.086.111-.215.17-.345.17a.44.44 0 0 1-.267-.092zm154.566-.268c-.148-.189-.114-.464.077-.611s.463-.112.61.078.113.462-.077.61c-.079.061-.173.092-.267.092a.43.43 0 0 1-.343-.168zM31.537 39.891c-.179-.159-.195-.435-.034-.614s.435-.195.614-.035.194.436.035.615c-.086.097-.205.145-.325.145-.103 0-.206-.037-.29-.111zm145.47-.21c-.16-.179-.146-.453.033-.614s.455-.146.615.033.147.453-.032.614c-.084.076-.188.112-.292.112-.119 0-.237-.05-.324-.145zM36.463 34.727c-.167-.172-.162-.448.011-.615s.448-.162.615.011.163.448-.011.615a.43.43 0 0 1-.302.123c-.114 0-.229-.044-.314-.133zm135.605-.153c-.173-.167-.179-.443-.012-.615s.443-.179.616-.013.179.443.013.616c-.086.089-.2.133-.315.133-.109 0-.217-.04-.302-.121zM41.75 29.935c-.154-.184-.129-.458.056-.614s.458-.129.612.056.129.458-.055.613c-.082.068-.18.102-.279.102-.124 0-.248-.054-.334-.157zm125.021-.097c-.185-.154-.21-.428-.057-.614s.428-.21.614-.056.21.428.056.613c-.086.104-.21.158-.334.158a.44.44 0 0 1-.279-.101zm-119.4-4.298c-.141-.196-.097-.468.099-.607s.468-.097.607.099.095.468-.099.607a.44.44 0 0 1-.254.082c-.136 0-.269-.064-.354-.182zm113.772-.042c-.194-.14-.24-.411-.1-.607s.411-.24.607-.101.241.411.101.607c-.085.119-.218.182-.354.182-.088 0-.176-.026-.254-.081zM53.293 21.567c-.126-.205-.061-.473.144-.598s.474-.061.599.144.061.473-.144.598c-.072.043-.15.064-.227.064-.146 0-.29-.073-.372-.208zm101.92.014c-.205-.125-.27-.393-.144-.598s.391-.27.598-.145.27.393.145.598a.44.44 0 0 1-.373.209c-.077 0-.155-.021-.226-.064zM59.49 18.037c-.111-.214-.027-.477.187-.586s.477-.027.586.187.027.477-.187.586c-.064.033-.132.048-.2.048a.43.43 0 0 1-.387-.235zm89.521.069c-.214-.11-.297-.372-.188-.586s.372-.298.587-.188.298.372.188.586c-.077.15-.23.236-.388.236a.43.43 0 0 1-.199-.048zM65.926 14.97c-.094-.221.008-.477.23-.572s.477.009.571.23-.008.477-.23.571c-.055.025-.114.035-.17.035-.17 0-.33-.099-.401-.264zm76.646.123c-.222-.093-.325-.349-.231-.571s.348-.324.57-.231.326.35.232.572c-.071.166-.232.265-.402.265-.057 0-.114-.012-.169-.035zm-70.005-2.709c-.077-.227.043-.476.27-.553s.476.043.554.27-.043.476-.27.553c-.047.016-.095.023-.142.023-.18 0-.349-.113-.411-.294zm63.359.178c-.227-.077-.35-.324-.272-.553s.325-.349.552-.272.35.324.273.552c-.061.18-.231.295-.413.295-.047 0-.094-.008-.14-.023zm-56.537-2.271c-.06-.232.078-.47.311-.531s.471.078.532.311-.078.47-.311.531c-.037.011-.073.014-.11.014-.193 0-.37-.129-.422-.325zm49.731.239c-.232-.061-.372-.298-.312-.531s.297-.372.53-.312.373.298.313.53c-.051.197-.228.326-.422.326-.035 0-.073-.004-.109-.013zM86.344 8.706c-.044-.236.112-.464.349-.508a.44.44 0 0 1 .508.35c.043.236-.114.462-.35.507-.026.005-.054.008-.08.008-.205 0-.388-.147-.427-.356zm35.839.296h-.001c-.237-.043-.393-.269-.35-.505s.27-.394.506-.351.393.27.35.507c-.038.21-.22.358-.427.358-.026 0-.052-.002-.078-.008zM93.398 7.633c-.026-.239.146-.453.385-.481s.454.146.481.385-.146.454-.385.481l-.048.003c-.219 0-.407-.165-.432-.388zm21.755.354c-.239-.025-.413-.24-.387-.479s.241-.411.479-.387.412.24.387.479c-.025.223-.213.389-.432.389-.016 0-.031 0-.047-.003zm-14.643-.909c-.009-.24.179-.443.42-.452s.442.179.451.419-.179.443-.419.452a.44.44 0 0 1-.452-.419zm7.557.409c-.241-.009-.429-.21-.42-.45s.209-.428.45-.42.428.21.42.45-.201.42-.435.42z"/><path d="M102.908 209.399c-.18-.002-.324-.151-.321-.332s.151-.324.331-.321.324.151.322.332-.148.321-.327.321zm6.885-.436c-.01-.179.129-.333.31-.342s.333.129.342.309-.13.333-.31.343c-.189.001-.333-.135-.342-.31zm-14.102.072c-.179-.014-.312-.173-.298-.353s.174-.313.353-.297.313.173.298.352c-.014.171-.157.299-.324.299-.01 0-.02 0-.029-.001zm21.281-.666c-.022-.179.106-.341.285-.363s.342.105.363.286-.106.341-.285.361c-.013.003-.026.003-.039.003-.163 0-.305-.121-.324-.287zm-28.456-.192c-.179-.028-.3-.195-.273-.373s.195-.3.372-.272.3.194.273.372c-.025.162-.164.277-.323.277-.016 0-.033-.002-.05-.004zm35.577-.895c-.034-.177.083-.349.259-.382s.349.082.383.26-.083.347-.26.381c-.02.004-.041.007-.062.007-.154-.001-.29-.109-.32-.266zm-42.676-.457c-.176-.039-.286-.214-.247-.39s.214-.286.39-.247.286.215.247.391c-.035.152-.17.254-.319.254-.023 0-.048-.003-.072-.008zm49.705-1.12c-.046-.176.059-.355.232-.4s.353.057.4.232-.059.353-.232.398c-.028.008-.056.012-.084.012-.145 0-.277-.097-.316-.242zm-56.695-.721c-.172-.053-.27-.234-.218-.407s.234-.27.406-.219.27.235.219.407a.33.33 0 0 1-.313.233.35.35 0 0 1-.094-.014zm63.599-1.343c-.058-.171.032-.357.203-.414s.357.033.414.204-.032.357-.204.414c-.033.012-.07.018-.104.018-.136 0-.264-.086-.309-.222zm-70.452-.983c-.169-.064-.253-.254-.189-.422s.252-.253.421-.189.253.252.189.42c-.05.131-.174.212-.306.212-.038 0-.077-.007-.115-.021zm77.185-1.55c-.069-.166.008-.358.175-.427s.358.007.427.173-.008.358-.175.429a.32.32 0 0 1-.125.024c-.128 0-.25-.074-.302-.199zM60.9 199.86c-.165-.075-.236-.269-.16-.433s.269-.235.434-.16.235.27.159.433c-.055.12-.172.19-.297.19a.33.33 0 0 1-.136-.03zm90.403-1.748c-.081-.161-.017-.357.145-.438s.357-.017.438.145.017.357-.144.438a.34.34 0 0 1-.148.035c-.118 0-.233-.065-.291-.18zm-96.865-1.505c-.158-.086-.217-.285-.129-.443s.285-.215.443-.129.215.285.129.443c-.059.108-.171.17-.286.17-.054 0-.107-.013-.157-.041zm103.189-1.937c-.093-.155-.042-.355.113-.447s.356-.041.448.114.041.356-.115.447c-.052.032-.109.046-.165.046-.111 0-.22-.056-.281-.16zm-109.409-1.754c-.151-.096-.196-.299-.099-.45s.3-.196.452-.099.196.299.098.452c-.061.096-.167.15-.274.15-.062 0-.122-.017-.176-.053zm115.48-2.117c-.102-.148-.065-.351.084-.454s.351-.065.454.084.065.351-.083.453a.33.33 0 0 1-.186.059c-.103 0-.205-.05-.269-.142zm-121.43-1.992c-.145-.109-.175-.312-.067-.457s.311-.175.456-.068.175.312.068.457c-.064.086-.163.132-.263.132-.068 0-.136-.021-.194-.064zm127.223-2.288c-.112-.141-.088-.346.053-.459s.346-.09.458.051a.33.33 0 0 1-.051.46c-.06.048-.132.07-.204.07-.096 0-.19-.041-.256-.122zm-132.875-2.222c-.136-.117-.153-.322-.035-.46s.324-.154.46-.036.154.324.037.461a.33.33 0 0 1-.461.035zm138.362-2.447c-.122-.132-.112-.34.021-.461s.338-.114.461.019.112.34-.02.461c-.063.058-.143.086-.221.086-.088 0-.176-.035-.241-.105zm-143.689-2.438c-.129-.126-.13-.333-.005-.461s.333-.131.462-.004.131.333.004.461c-.064.065-.149.098-.232.098s-.166-.032-.229-.094zm148.843-2.597c-.13-.124-.135-.33-.011-.462v.001c.124-.132.33-.137.462-.013s.136.332.012.462c-.066.067-.152.102-.238.102a.33.33 0 0 1-.225-.09zm-153.824-2.642c-.119-.134-.107-.341.029-.461s.341-.107.46.028.108.342-.027.461c-.061.056-.139.082-.215.082-.091 0-.18-.037-.246-.11zm158.623-2.736c-.139-.115-.158-.32-.043-.459s.319-.158.459-.044.158.32.043.46c-.065.078-.158.118-.252.118-.073 0-.147-.024-.207-.075zM21.7 168.607c-.11-.142-.084-.347.059-.458s.347-.084.458.058.083.349-.059.459c-.06.045-.129.068-.2.068-.098 0-.195-.043-.259-.127zm167.649-2.865c-.147-.105-.18-.31-.076-.456s.309-.18.456-.074a.33.33 0 0 1 .076.456c-.064.089-.165.135-.267.135-.065 0-.132-.019-.189-.061zm-171.863-3.004a.33.33 0 0 1 .09-.453c.15-.099.354-.059.453.091s.06.353-.09.452c-.056.038-.119.056-.182.056-.104 0-.209-.052-.271-.146zm175.879-2.983c-.153-.095-.202-.296-.106-.449s.296-.201.449-.106.201.295.106.45c-.061.099-.169.154-.277.154-.059 0-.119-.016-.172-.049zm-179.678-3.16c-.089-.157-.035-.355.121-.445s.357-.036.445.121.035.357-.121.445c-.051.03-.106.043-.16.043-.114 0-.225-.058-.285-.164zm183.273-3.09c-.16-.085-.222-.282-.137-.441s.281-.221.44-.137.221.28.137.441c-.057.111-.171.173-.288.173-.053 0-.104-.011-.152-.036zm-186.639-3.299c-.078-.163-.011-.358.153-.436s.357-.011.435.151.012.358-.151.436c-.046.023-.094.033-.141.033a.33.33 0 0 1-.295-.184zm189.793-3.188c-.166-.072-.24-.265-.169-.429s.267-.241.431-.167.241.265.168.429c-.054.123-.174.195-.3.195a.3.3 0 0 1-.13-.028zM7.408 143.6c-.067-.167.015-.356.182-.424s.358.014.424.183-.014.356-.182.424c-.04.016-.081.024-.121.024-.129 0-.252-.079-.303-.207zm195.401-3.272c-.17-.062-.257-.248-.196-.418s.249-.259.417-.197.259.248.197.417c-.048.134-.173.216-.307.216-.036 0-.074-.005-.111-.018zM4.956 136.802c-.056-.171.039-.356.21-.41s.355.039.411.21-.039.355-.212.411c-.033.011-.067.016-.101.016-.137 0-.265-.089-.31-.227zm200.076-3.328c-.174-.05-.275-.23-.226-.404s.23-.274.403-.224.275.228.225.402c-.04.144-.171.238-.313.238-.03 0-.06-.004-.089-.012zM2.983 129.85c-.043-.175.064-.353.239-.396s.351.064.396.239a.33.33 0 0 1-.239.396c-.027.006-.054.009-.078.009-.148 0-.281-.099-.317-.248zm203.789-3.368c-.177-.037-.29-.209-.252-.385s.209-.29.385-.254.29.21.253.387c-.033.154-.168.26-.32.26-.022 0-.044-.003-.066-.008zM1.498 122.777c-.031-.178.088-.346.265-.378s.347.088.377.265-.088.348-.265.379c-.02.003-.038.004-.056.004-.157 0-.294-.111-.321-.27zm206.525-3.389a.33.33 0 0 1-.28-.369c.025-.179.19-.304.369-.279s.303.189.279.368c-.023.164-.163.283-.324.283l-.044-.003zM.506 115.619c-.018-.179.111-.34.291-.358s.34.111.358.291-.111.34-.291.358c-.012.001-.022.001-.034.001-.165 0-.307-.124-.324-.292zm208.275-3.396c-.18-.011-.316-.168-.304-.347s.169-.316.348-.304.316.168.304.348c-.012.173-.155.305-.325.305-.008 0-.016-.002-.023-.002zM.007 108.41c-.005-.18.136-.331.316-.337s.33.134.337.315-.135.33-.315.337a.33.33 0 0 1-.338-.315zm208.715-3.712c0-.034.005-.065.014-.096a.34.34 0 0 1-.016-.097c0-.18.146-.326.327-.326s.326.145.326.325a.29.29 0 0 1-.014.098c.01.03.015.063.015.097 0 .18-.146.326-.326.326s-.326-.146-.326-.327zM.316 101.52c-.18-.007-.321-.157-.316-.337a.33.33 0 0 1 .338-.317c.179.007.321.157.315.337s-.15.317-.325.317zm208.148-4.194c-.013-.179.123-.335.303-.349a.33.33 0 0 1 .349.303c.012.18-.124.337-.303.349-.008.001-.016.001-.024.001-.169 0-.313-.132-.325-.305zM.777 94.33c-.179-.018-.31-.179-.291-.358s.178-.31.358-.291.31.178.291.358c-.017.167-.159.293-.324.293a.24.24 0 0 1-.034-.001zm206.94-4.146c-.025-.178.099-.343.278-.368s.344.099.369.278-.099.343-.278.368c-.016.003-.03.004-.046.004-.161 0-.301-.119-.323-.282zM1.731 87.189c-.178-.03-.296-.2-.267-.377s.2-.297.377-.267.296.2.267.377c-.027.159-.166.272-.321.272-.018 0-.038-.001-.056-.005zm204.748-4.078c-.038-.176.076-.35.252-.388s.35.076.387.252-.076.35-.252.388a.41.41 0 0 1-.068.007.33.33 0 0 1-.319-.259zM3.176 80.132c-.175-.043-.283-.219-.24-.394s.219-.283.394-.24.283.219.24.394c-.037.149-.17.25-.317.25a.31.31 0 0 1-.077-.009zm201.578-3.992c-.05-.174.051-.354.223-.404s.354.051.404.225-.051.354-.225.404a.35.35 0 0 1-.089.012c-.142 0-.273-.093-.313-.236zM5.108 73.191c-.172-.055-.267-.239-.212-.41s.239-.267.41-.212.267.238.212.41c-.044.139-.172.227-.311.227-.033 0-.067-.005-.099-.016zm197.439-3.887c-.062-.17.026-.357.196-.418s.356.026.419.196-.027.357-.197.418c-.037.014-.074.02-.111.02-.133 0-.259-.082-.307-.216zM7.521 66.392c-.167-.067-.249-.257-.183-.424s.257-.249.424-.183.249.257.183.424c-.051.128-.174.205-.303.205-.04 0-.082-.007-.121-.022zm192.354-3.744c-.073-.165.002-.358.167-.43s.358.001.431.166-.002.358-.167.431a.34.34 0 0 1-.132.027c-.125 0-.244-.072-.299-.195zM10.401 59.778c-.162-.078-.231-.273-.153-.436s.274-.231.436-.153.231.273.153.436a.33.33 0 0 1-.295.186.32.32 0 0 1-.141-.033zm186.346-3.587a.33.33 0 0 1 .137-.441c.16-.084.357-.023.442.136s.022.358-.138.441c-.048.026-.1.038-.151.038-.118 0-.231-.063-.29-.174zM13.732 53.382c-.158-.089-.212-.288-.123-.445s.288-.212.445-.121.212.288.123.445h-.001c-.06.106-.17.164-.283.164-.055 0-.11-.014-.161-.043zm179.448-3.419c-.095-.153-.048-.354.105-.449a.33.33 0 0 1 .451.106c.094.153.047.354-.106.449a.32.32 0 0 1-.173.048c-.108 0-.215-.053-.277-.154zM17.496 47.232c-.15-.099-.191-.302-.091-.452s.303-.191.453-.091.191.303.09.453c-.063.094-.166.145-.272.145-.062 0-.125-.017-.18-.055zm171.695-3.238c-.106-.146-.072-.35.074-.456s.35-.072.456.074.072.35-.074.456c-.058.042-.124.061-.191.061-.102 0-.201-.047-.265-.136zM21.674 41.357c-.142-.11-.17-.315-.06-.457s.316-.17.458-.06.17.315.06.458c-.065.084-.162.127-.26.127-.069 0-.138-.022-.198-.068zm163.125-3.045c-.115-.139-.095-.343.043-.46s.345-.095.46.043.096.345-.042.46c-.061.051-.136.076-.209.076-.094 0-.187-.04-.252-.119zM26.246 35.786c-.136-.12-.149-.327-.029-.461s.325-.148.461-.029.148.326.027.461c-.064.073-.154.111-.244.111-.077 0-.154-.027-.215-.082zm153.782-2.842c-.124-.131-.12-.337.011-.461s.337-.12.462.011.119.338-.012.462a.32.32 0 0 1-.224.09c-.087 0-.173-.034-.237-.102zm-148.84-2.403c-.127-.128-.125-.336.003-.462s.336-.124.462.004.125.335-.004.462c-.063.063-.146.093-.229.093a.32.32 0 0 1-.232-.097zm143.71-2.626c-.133-.121-.142-.328-.021-.461s.329-.142.463-.02.141.328.02.461c-.065.07-.153.106-.241.106-.08 0-.158-.029-.221-.086zM36.477 25.649c-.118-.137-.102-.343.035-.461s.342-.102.459.035.102.343-.035.46c-.061.054-.137.08-.213.08-.091 0-.183-.039-.247-.114zm132.958-2.4c-.141-.112-.164-.317-.052-.458s.317-.165.459-.052.164.319.052.46c-.064.081-.16.123-.256.123-.071 0-.143-.024-.203-.072zM42.088 21.132c-.107-.145-.078-.35.067-.457s.349-.078.457.067.078.349-.067.457c-.059.043-.127.064-.195.064a.33.33 0 0 1-.262-.13zm121.575-2.163a.33.33 0 0 1-.084-.454c.104-.149.306-.185.455-.084s.185.306.083.454c-.064.091-.165.141-.269.141-.064 0-.128-.018-.185-.058zM47.995 17.012c-.098-.153-.054-.354.098-.452s.354-.053.452.098.054.354-.098.452c-.055.035-.116.051-.176.051a.33.33 0 0 1-.275-.149zm109.615-1.916c-.156-.093-.207-.293-.115-.448s.292-.206.446-.114.207.291.115.447c-.061.103-.169.161-.28.161a.33.33 0 0 1-.166-.046zM54.17 13.308c-.087-.158-.03-.357.128-.443s.357-.03.444.128.029.357-.129.444c-.05.027-.103.04-.157.04-.115 0-.227-.062-.286-.17zm97.132-1.66c-.162-.081-.227-.277-.146-.438s.277-.226.438-.145.227.277.145.438c-.057.115-.172.18-.292.18-.048 0-.099-.01-.145-.035zm-90.718-1.606c-.076-.163-.004-.358.159-.434s.358-.004.434.159.004.358-.159.434a.32.32 0 0 1-.137.03c-.123 0-.242-.07-.297-.189zm84.184-1.395c-.167-.069-.245-.261-.175-.427s.26-.245.427-.176.245.261.175.428c-.052.124-.173.2-.301.2-.042 0-.085-.008-.126-.025zM67.207 7.227c-.064-.168.021-.357.189-.42s.357.02.422.188-.021.358-.189.422c-.038.014-.077.021-.116.021-.132 0-.256-.08-.306-.21zm70.833-1.122c-.17-.059-.263-.244-.204-.414s.243-.263.414-.205.261.243.203.414c-.045.136-.172.222-.308.222-.035 0-.07-.005-.105-.017zM74.017 4.878c-.052-.172.046-.355.218-.407s.355.046.407.218-.046.355-.218.407c-.031.009-.063.013-.094.013-.141 0-.27-.09-.313-.231zm57.144-.837c-.175-.046-.278-.225-.232-.4s.225-.278.398-.232.278.225.233.4c-.038.146-.17.243-.315.243-.027 0-.056-.004-.084-.011zM80.976 3.006c-.04-.176.069-.35.246-.391s.35.069.39.245-.069.35-.245.391c-.025.005-.049.009-.073.009-.149-.001-.283-.103-.317-.255zm43.18-.547c-.178-.034-.294-.205-.26-.381s.204-.294.382-.261.294.205.26.383c-.03.157-.168.265-.322.265-.019 0-.04-.001-.06-.005zm-36.111-.836c-.027-.178.094-.345.273-.373s.345.094.372.272-.094.346-.272.373c-.017.003-.034.004-.051.004-.158 0-.297-.115-.323-.276zm29.013-.257c-.179-.021-.307-.183-.286-.362s.184-.308.363-.286.307.183.286.362c-.021.167-.162.289-.325.289-.012 0-.025-.001-.038-.003zM95.194.732c-.016-.179.118-.338.296-.353s.338.117.354.296-.118.338-.296.354l-.029.001c-.169 0-.311-.128-.325-.299zm14.708.034c-.181-.009-.319-.162-.31-.342s.162-.319.342-.311.319.163.31.344c-.01.174-.153.31-.326.31zm-7.515-.432a.33.33 0 0 1 .321-.333c.18-.003.329.141.332.321s-.14.329-.32.332-.329-.143-.333-.32z"/></g></svg>