<svg xmlns="http://www.w3.org/2000/svg" width="28" height="28" fill="none" xmlns:v="https://vecta.io/nano"><path d="M7.458.126C8.047.027 8.647.005 9.244.007l5.062-.003c1.827-.067 3.537.786 4.99 1.812 1.382.989 2.518 2.363 3.053 3.986.365 1.139.345 2.354.624 3.511.109.467.364.969.862 1.111.97.301 1.999.136 2.992.258.684.093 1.174.762 1.166 1.43l-.064 7.034c.045 3.397-2.102 6.693-5.224 8.059-1.135.53-2.389.782-3.639.783-3.018.009-6.036-.002-9.054.005-1.378.029-2.783-.026-4.089-.511C2.553 26.33.096 22.996.02 19.449l-.014-8.245c.012-1.661-.118-3.369.41-4.974C1.381 3.101 4.205.636 7.458.126zm1.071 7.18c-1.115.244-1.614 1.733-.911 2.615.381.592 1.115.76 1.778.725l4.457-.014c.875.023 1.729-.667 1.751-1.563.114-.864-.568-1.749-1.453-1.804-1.02-.081-2.044-.002-3.066-.024-.851.017-1.712-.079-2.556.066zm.008 10.095c-.747.195-1.326.963-1.25 1.74.028.907.902 1.641 1.801 1.583l9.517.009c.517-.002 1.094-.034 1.485-.417.763-.615.782-1.904.04-2.542-.313-.322-.77-.435-1.209-.423-3.228.005-6.456.014-9.685-.005-.235.005-.469.008-.7.053z" fill="#fff5e5"/></svg>