<svg viewBox="0 0 1024 1024" xmlns="http://www.w3.org/2000/svg"><path d="M541.88 534.418H160q-11.154 0-19.054-7.9-7.863-7.9-7.863-19.053 0-11.154 7.863-19.017 7.9-7.9 19.054-7.9h381.88q11.153 0 19.016 7.9 7.9 7.863 7.9 19.017t-7.9 19.054q-7.863 7.898-19.017 7.898zm353.498-26.697q0 54.566-152.1 151.407Q585.69 759.48 547.035 720.86q-31.34-31.342-32.073-211.932-.768-181.504 32.11-214.345 40.558-40.52 197.45 60.745 150.856 97.317 150.856 152.393zm-53.87 0q0-25.745-126.17-107.153-120.394-77.678-130.195-67.877-16.97 16.97-16.31 176.02.657 158.39 16.31 174.042 8.046 8.082 129.207-69.047 127.16-80.97 127.16-105.984z"/></svg>